<?xml version="1.0" encoding="UTF-8"?>
<svg id="uuid-86af08a9-087d-4570-b8bb-68aa69d125dc" data-name="Layer 2" xmlns="http://www.w3.org/2000/svg" width="207.7" height="43.85" viewBox="0 0 207.7 43.85">
  <g id="uuid-38324737-c28d-406e-9355-18a535487ffa" data-name="コンテンツ">
    <g>
      <g>
        <g>
          <path d="m145.19,43.23c-.16-.02-2.34-.23-4.46-.23-1.09,0-2.13.07-2.91.2-.19,0-.27-.17-.27-.32,0-.17.08-.39.27-.5,1.11-.14,2.2-.28,2.2-1.43,0-.83-1.58-5.52-2.02-6.77-.05-.18-.1-.4-3.55-.4-1.21,0-2.42.03-3.39.1h0c-.32,0-.75.19-.91.72-.19.65-.46,1.52-.73,2.39-.4,1.29-.78,2.51-.9,3.05-.07.27-.07.51-.07.74,0,1.22.9,1.37,2.4,1.63.17.11.27.3.27.49,0,.17-.12.29-.29.29-1.54-.13-2.93-.2-4.1-.2-.89,0-2.02.02-2.82.2-.1,0-.17-.14-.17-.32,0-.12.03-.35.22-.51,2.52-.35,2.88-1.43,5.7-9.81,1.15-3.43,4.2-11.51,4.61-12.15.11-.16.3-.22.4-.22.42.16,2.42,5.56,7.25,18.6l.4,1.06c.54,1.46,1.13,2.24,2.82,2.51.17.08.2.3.2.42,0,.27-.11.44-.16.45Zm-11.2-19.73c-.48,0-3.16,8.74-3.16,8.83,0,.17.2.23.32.27.39.06,1.38.06,2.52.06,3.41,0,3.69,0,3.69-.36,0-.09-3.06-8.8-3.36-8.8Z" fill="#231815" stroke-width="0"/>
          <path d="m172.85,43.81c-.37,0-.65-.24-1.08-.96-1.15-1.82-3.74-5.13-6.59-8.45-3.88-4.45-6.69-7.79-8.59-10.22-.02-.02-.11-.07-.15-.07-.13,0-.27.11-.27.27,0,.45,0,.93-.01,1.44,0,.57-.02,1.17-.02,1.79,0,3.5.1,7.57.23,9.68.32,4.48.91,4.73,3.64,5.18.11.11.21.3.21.48,0,.17-.08.25-.25.25-.01,0-2.33-.23-4.66-.23-1.34,0-2.46.08-3.34.23-.15,0-.24-.12-.24-.26,0-.17.09-.34.26-.51,2.97-.35,3.09-1.27,3.09-8.44,0-1.42,0-3.08-.02-4.81,0-1.84-.02-3.75-.02-5.48,0-.96-.39-2-3.28-2.38-.06-.06-.2-.29-.2-.48,0-.17.13-.25.38-.25,0,0,1.48.13,2.96.13.71,0,1.39-.03,1.97-.1.3.86.57,1.19,1.31,2.06.18.21.38.45.62.74,2.13,2.64,4.29,5.15,6.42,7.46,1.27,1.4,2.56,2.98,3.81,4.51.9,1.09,1.76,2.15,2.57,3.08.08.08.13.13.24.13.2,0,.2-.25.2-.36-.08-1.15-.13-2.84-.13-4.98,0-1.12,0-2.23.02-3.21,0-.76.01-2.62.01-2.62v-.86c0-3.08,0-4.77-3.77-5.23-.11-.12-.2-.28-.2-.45,0-.14.09-.29.29-.29.02,0,2.4.16,4.75.16.93,0,2.28-.02,3.27-.16.21,0,.24.18.24.29,0,.19-.07.35-.22.47-2.93.35-3.26.68-3.26,9.07,0,3.76.13,9.21.42,12.25v.28c0,.77-.33.87-.61.87Z" fill="#231815" stroke-width="0"/>
          <path d="m182.6,43.12s-.01-.03-.03-.03c-.02,0-.06.01-.09.01,0,0-.41,0-.41,0,0-.02-.04-.03-.07-.03-.03,0-.32,0-.32,0h-.17s-.04.04-.04.04c0,0,0-.02,0-.03,0-.02,0-.04-.01-.06v-.15s0-.02,0-.04v-.25s.02-.03.02-.05c0-.04-.02-.12-.06-.14.06-.19.02-.45,0-.54,0-.01.01-.03.01-.05l.04-.41c0-.15,0-.21-.02-.26,0-.13,0-.18,0-.23,0,0,0-.22,0-.22,0-.02-.02-.07-.04-.11l.04.04s-.02-.13-.03-.15h-.03s.03-.03.03-.05c0-.02.02-.03.04-.03.02,0,.05,0,.07,0,.01,0,.03,0,.04-.02.03,0,.15,0,.15,0,0,0,.02,0,.02,0,0,0,.02,0,.02,0,.02,0,.13-.02.15-.02,0,0,.24,0,.27,0,.05,0,.07,0,.1,0h.15s.02,0,.03,0h.1s.37.04.37.04c.01,0,.03.01.05.01h.42c.1,0,.21,0,.3-.03l.17.02s.05,0,.07-.03c.02-.02.03-.05.03-.08.01,0,.06.11.07.11h.13s.02,0,.04,0c.01,0,.13.03.14.03-.04,0-.06.08-.06.14,0,.01-.01.03-.01.05-.05,0-.03.09-.02.15,0,.01-.01.03-.01.04,0,.02,0,.06.02.08h0s-.01.16-.01.16c-.02.06-.03.18-.03.3,0,.07,0,.14-.01.19v.16s0,.03,0,.04v.11s0,.06.02.08c0,0,0,0,0,0h0s0,.03.01.05v.1s0,.02,0,.02v.1s0,.03,0,.04c0,.02,0,.04,0,.06,0,.01,0,.02,0,.04,0,.02,0,.04.01.06v.19s0,.03.01.05v.28s0,.02-.01.03v.12s0,0-.01,0c-.02,0-.05,0-.1.02,0,0-.01,0-.02,0h-.14s-.03,0-.04,0c0,0,0,0,0,0h0s-.01,0-.02,0c-.02-.01-.03-.02-.05-.02,0-.02-.02-.03-.05-.03-.03,0-.07,0-.1.01-.01,0-.02,0-.04,0h-.24s-.21-.02-.21-.02c-.02,0-.03,0-.05.01h-.25s-.05,0-.06.02c-.02,0-.04.01-.07.02l.02-.02s-.07.01-.07.01c0,0-.02,0-.03,0-.04,0-.1,0-.11.02,0,0-.02.02-.04.02l.05-.04Z" fill="#231815" fill-rule="evenodd" stroke-width="0"/>
          <path d="m203.06,43.85c-.17-.1-.79-1.2-.97-1.93-.06-.12-.16-.19-.28-.19-.03,0-.16.05-.18.07-.27.29-1.73,1.72-4.21,1.72-1.13,0-6.77-.35-6.77-7.32,0-3.81,2.29-7.65,7.39-7.65.83,0,1.5.18,2.29.39.38.1.78.21,1.24.3h0c.36,0,.52-.4.52-.69v-.59c0-.49,0-1.09.02-1.74,0-.77.02-1.6.02-2.39,0-1.44-.04-18-.15-18.74-.29-2.07-.4-2.1-1.83-2.38l-.26-.05c-.11-.02-.21-.24-.21-.45,0-.07.02-.11.03-.12,1.74-.29,3.58-1.09,4.52-1.54.14.01.36.1.36.38-.11,2.42-.37,28.54-.37,34.05,0,1.14,0,2.23.04,3.37.04,2.03.92,3.24,2.37,3.24.31,0,.61-.08.9-.15.06,0,.16.2.16.45,0,.12-.03.22-.08.23-1.21.29-3.47,1.02-4.34,1.58-.13.1-.19.12-.22.13Zm-5.31-14.41c-4.32,0-4.78,4.04-4.78,5.77,0,3.92,2.29,6.76,5.44,6.76s3.53-2.24,3.58-2.69c.13-.84.15-2.67.15-3.41,0-.35-.01-.68-.02-.98,0-.24-.02-.45-.02-.63-.1-2.97-1.77-4.82-4.35-4.82Z" fill="#231815" stroke-width="0"/>
        </g>
        <g>
          <path d="m157.59,4.77s-.07-.02-.09-.05l.09-.05-.11.02c-.19-.05-.37-.07-.52-.08-.36-.03-.52-.06-.61-.4-.04,0-.15-.12-.15-.16-.04-.4-.06-1.47,0-1.77l.23-.15.07-.33.2-.15.08-.33.2-.15.08-.39s.09-.1.11-.12c.15-.17.31-.25.58-.3.05,0,.08-.05.08-.09,0-.04.04-.17.08-.18.11-.03.19-.07.27-.1,0,0,.14.04.15.04.4.12.68.52.72,1.02,0,.03-.04.09-.07.11-.02.01-.09.05-.12.05h0c-.05,0-.09-.05-.09-.11l-.09-.25v.1s-.75-.04-.75-.04c-.16.28-.25.36-.33.44-.11.11-.2.2-.27.43-.01.04-.06.07-.11.07,0,0-.12.04-.13.04,0,.04-.09.24-.12.26l-.14.06c-.06.16-.02.28.03.31.05.22.04.35.03.47-.02.31-.04.59.15.82.04.13.08.19.1.2l.75.04c.12-.09.15-.13.16-.15.02-.02.05-.03.07-.03h0s.06.02.08.05c.06-.03.13-.05.22-.1l.11-.18c.07-.02.18-.03.26-.03.05,0,.09,0,.09,0,0-.02.11-.14.12-.16,0,0,.09-.09.09-.09.13-.1.22-.16.44-.21.05,0,.08-.05.08-.09,0-.06.05-.14.11-.14h.01c.1,0,.14-.04.14-.09,0-.05.05-.14.11-.14h.18s.8-.89.8-.89l.23-.03s.11.1.13.13c.09.15.1.2.1.52,0,.05.04.1.1.1.05,0,.14.04.15.08.02.1.07.16.09.17.05,0,.14.05.14.11l.09.15.99.05s.09-.04.1-.1c0-.04.04-.17.08-.19.07-.02.14-.04.2-.06.12-.04.22-.08.41-.09h0s.05,0,.07.03c.02.02.03.05.03.08l-.02.36c-.17.12-.22.15-.27.17-.09.05-.16.07-.39.09-.05,0-.09.05-.09.1,0,.05-.04.17-.08.19l-.13.03c-.3.08-.7.18-1.06.18-.15,0-.28-.02-.39-.05-.03,0-.09-.12-.1-.15-.02-.06-.1-.14-.13-.15-.06,0-.14-.05-.14-.11v-.29s-.09-.21-.09-.21v.1c-.44,0-.56.08-.76.22-.05.03-.1.07-.17.12-.02.03-.09.1-.13.1h-.2s-.1.09-.1.09c0,.05-.05.14-.11.14h-.01c-.1,0-.14.04-.14.09,0,.04-.04.18-.08.19l-.24.06s-.12.11-.16.11l-.16.05-.07.13-.35.04-.16.18-.32.04c-.08.03-.15.07-.18.13-.02.03-.05.05-.09.05Z" fill="#231815" fill-rule="evenodd" stroke-width="0"/>
          <path d="m149.07,6.35c-.29-.02-.61-.19-.71-.3-.04-.02-.09-.08-.08-.12v-.18s-.16-.17-.16-.17l.03-1.07c0-.05-.04-.1-.09-.11l-.19-.18c-.08-.11-.12-.17-.14-.39.01-.05.14-.23.18-.23.25,0,.33-.03.45-.09.07-.03.14-.06.31-.09.13-.22.17-.28.21-.34.06-.09.1-.16.15-.33l.33-.13s.12-.11.15-.11c.08,0,.15-.03.17-.04l.07-.12h.76s.09.04.09.09c0,0,.05.11.05.12.05,0,.18.11.18.16v.29c0,.21,0,.34-.04.54,0,.05-.05.08-.1.08h-.03c-.11,0-.15.04-.16.09,0,.05-.05.14-.11.14h-.18s-.16.16-.16.16l-.35.03-.18.21-.36.12-.13.82c.26.2.36.24.7.28.16-.13.19-.16.21-.17.02-.01.13-.03.15-.03.14,0,.26-.07.27-.1,0-.04.04-.17.08-.18.24-.07.41-.19.57-.31.17-.13.33-.25.58-.3.05,0,.08-.05.08-.09s.05-.16.09-.17l.3-.04s.09.05.12.07c.02.02.02.05.02.08s-.02.05-.05.07c-.07.05-.13.09-.19.14-.13.1-.23.19-.46.23-.05,0-.08.05-.08.09l-.02.28c0,.05-.05.09-.1.09h-.02c-.1,0-.14.04-.14.09,0,.05-.05.13-.11.13h-.01c-.1,0-.14.04-.14.09,0,.05-.05.13-.11.13h-.02c-.1,0-.14.04-.14.09,0,.05-.05.13-.11.13h-.02c-.1,0-.14.04-.14.09s-.05.16-.1.16c-.14,0-.21.01-.36.08-.02.03-.1.1-.14.1l-.45-.03s-.14.13-.19.13h0Z" fill="#231815" fill-rule="evenodd" stroke-width="0"/>
          <path d="m125.93,10.2s-.07-.02-.09-.05c-.09-.13-.19-.21-.33-.3-.03-.35-.04-.47-.11-.64-.03-.02-.1-.11-.09-.15l.09-.66s-.11-.15-.11-.19c0-.07-.03-.15-.06-.18l.42-3.41.14-.13.02-.18.25-.16h-.1s.17-1.34.17-1.34l.21-.13.16-.79s.06-.08.08-.1c0-.02.08-.17.1-.19l.12-.09s.04-.17.08-.18l.14-.05c.08-.16.04-.22,0-.29-.02-.03-.03-.1-.01-.13s.03-.08.07-.08l.64-.39s.04-.02.05-.02c.03,0,.06.01.08.04.03.04.03.1-.01.14,0,.04-.05.16-.08.18,0,.04-.12.24-.16.25l-.14.05-.13.55s-.06.08-.08.1c0,.05-.12.21-.17.21l-.12.65-.21.13-.25,1.51-.14.13-.49,2.77c.06.46.12.99.04,1.61l.17.18s.04.18.03.22c0,.05.03.11.09.11l.14.21c.07.07.17.1.2.1.06,0,.11-.02.16-.06.01-.01.04-.02.06-.02s.05,0,.06,0c.04.01.06.05.07.09s-.02.08-.05.1c-.15.34-.47.54-.9.55h0Z" fill="#231815" fill-rule="evenodd" stroke-width="0"/>
          <path d="m133.24,8.87s-.08-.03-.1-.07c-.04-.14-.1-.2-.14-.23l.05-1.82c.22-.59.5-2.11.32-2.82-.01-.05-.05-.08-.1-.08-.14.03-.28.04-.45.04-.2,0-.43-.02-.67-.05h0c-.06,0-.11.04-.11.09,0,.05-.06.13-.11.13l-.44-.05-.16.17h-.48l-.16.17s-.08.02-.15.02c-.18,0-.44-.03-.46-.03l-.16.17h-.36s-.16.18-.16.18c-.02.03-.09.04-.13.04,0,0-.15.05-.15.05,0,.02-.1.11-.11.12-.15.1-.24.16-.39.2-.18-.16-.22-.19-.38-.23-.03,0-.05-.02-.06-.05-.01-.02-.02-.05,0-.08.02-.07.04-.11.07-.16.15-.06.2-.1.2-.11.04-.3.04-.31.13-.31l.33-.03.16-.17s.09-.02.16-.02c.14,0,.3.02.32.02l.16-.17s.08-.02.15-.02c.18,0,.43.03.46.03l.17-.17s.08-.02.15-.02c.18,0,.43.03.45.03l.16-.17s.07-.02.14-.02c.21,0,.57.04.59.04.02-.03.13-.1.18-.1h0s.21-.09.26-.09c0,0,.55.06.58.07.01-.04.13-.14.17-.14l.35-.05s.08-.04.09-.09l.17-1.5c0-.05.05-.09.1-.09l.34.04s.05.02.07.04c.02.02.02.05.02.07l-.67,6s.15.15.17.18c.06.23.09.44.1.71l-.18.16c-.15.1-.24.14-.47.14h0Z" fill="#231815" fill-rule="evenodd" stroke-width="0"/>
          <path d="m143.53,7.03c-.12,0-.28-.05-.52-.17l-.03-.33c0-.05-.04-.1-.09-.11-.05,0-.14-.06-.14-.11l.04-.41-.19-.18-.06-1.08c.13-.15.16-.24.15-.37-.04-.02-.11-.13-.11-.17-.03-.02-.1-.22-.1-.26l.04-.43s.1-.1.13-.12c.07-.04.12-.07.25-.08h0s.09.03.1.08l.05.21.17.14-.02.82.06.27c.06.23.11.44.09.85.14.17.19.24.23.31.1.16.2.27.54.35.15-.11.18-.15.21-.18.06-.06.1-.11.14-.21.02-.04.15-.05.2-.05h0s.09-.04.1-.09.05-.13.11-.13c0,0,.19.02.19.02.04,0,.08-.03.09-.08l.14-.55s.05-.08.1-.08c0,0,.03,0,.04,0,.11,0,.15-.03.15-.07.04-.21.08-.29.15-.38.03-.04.06-.1.1-.18.02-.03.15-.05.2-.05h0c.05,0,.1-.04.1-.09l.02-.28s.02-.05.04-.07c.02-.02.04-.02.07-.02l.37.03s.09.04.09.09c.02.15.05.23.08.3.03.06.05.12.07.26-.5.34-.85.74-1.04,1.21-.01.04-.15.06-.2.06h0s-.09.04-.1.1c0,.05-.05.13-.11.13h-.02c-.1,0-.14.04-.14.09,0,.05-.05.13-.1.14-.08,0-.16.05-.17.07-.15.52-.53.79-1.13.79-.05,0-.16,0-.21,0-.01,0-.16.04-.17.04,0,0-.01,0-.02,0Z" fill="#231815" fill-rule="evenodd" stroke-width="0"/>
          <path d="m137.42,7.62c-.15,0-.32-.02-.52-.05-.03,0-.11-.03-.13-.05l-.53-.77c.02-.17.05-.24.09-.3.08-.16.15-.31.21-.59,0-.05.05-.08.1-.08,0,0,.27-.02.27-.02l-.1-.04.12-.33s.05-.07.1-.07c0,0,.27.04.27.04l-.08-.07c.14-.17.61-.37,1.05-.55.05-.02.15-.1.16-.13l.05-.48-.08-.21v.1s-.08-.02-.1-.04c-.02-.02-.05-.05-.05-.08.01-.1-.03-.15-.08-.15l-.23-.02s-.1-.11-.12-.13v-.4c.26-.16.38-.19.59-.19.07,0,.14,0,.22,0l.35.48s.09.1.09.14l-.03.3s.12.12.14.13c.06.04.06.07.06.26v.14s.04.09.09.1l.86.08.14.2.55.11.12.13c.06.02.13.03.21.03.09,0,.2-.01.31-.04,0,0,.02,0,.02,0,.04,0,.08.02.09.06.03.09.1.14.12.15.05,0,.1.05.1.1,0,.05-.02.09-.06.11-.15.13-.43.29-.75.29-.06,0-.12,0-.18-.02,0,0-.1-.1-.1-.1l-.55-.11s-.14.12-.19.12c0,0,0,0,0,0-.15-.02-.24-.08-.31-.13-.09-.06-.16-.11-.25-.11-.03,0-.14.05-.17.07l-.38.19-.1.54-.14.12-.15.47-.16.1-.1.21s-.1.06-.14.06h0c-.08,0-.16.04-.18.06-.09.27-.23.36-.52.36Zm.52-1.92c-.09,0-.21.05-.22.08,0,.03-.03.12-.06.14-.16.08-.19.2-.26.56l.08.22v-.1s.4.04.4.04c.05,0,.09-.04.09-.09l.07-.67c0-.06-.02-.17-.08-.17h-.02Z" fill="#231815" fill-rule="evenodd" stroke-width="0"/>
          <path d="m186.5,15.64s-.04,0-.05-.02l-1.1-.69-.36-.46s-.11-.08-.11-.13c0-.11-.05-.16-.1-.16-.05,0-.11-.1-.12-.15-.02-.07-.03-.14-.1-.21.06-.24.09-.35.06-.53-.03-.02-.08-.09-.09-.12,0-.04-.01-.11.02-.13l.07-.51c0-.05.04-.1.1-.1.11,0,.15-.05.15-.1v-.18l.12-.15.1-.29.23-.15s.1-.11.14-.11c.02-.04.21-.12.25-.12.02-.04.21-.12.25-.12h.19s.28-.44.28-.44l.47-.06c.05,0,.1-.04.1-.09l.31-.17.13-.19.47-.06.16-.19.34-.06s.11-.16.13-.18c.04-.04.08-.04.35-.06h.15s.09-.05.09-.1c.02-.21.02-.28.06-.37.14-.08.18-.12.18-.14v-.3s.12-.19.12-.19c0-.04.02-.17.05-.19l.06-.66s.09-.11.13-.13c.05-.03.12-.1.12-.12v-.61s.18-.16.18-.16l.05-.73c.06-.12.1-.21.12-.32l-.1-.12c-.36.04-.54.17-.7.28-.13.09-.25.17-.45.23-.04.01-.07.05-.07.1,0,.05-.04.15-.09.16-.23.03-.34.07-.48.12-.09.03-.19.07-.35.12h-.7s-.1-.06-.11-.07c-.02-.02-.08-.08-.08-.11-.03-.17-.08-.28-.12-.39-.04-.09-.08-.18-.11-.33-.04-.02-.09-.09-.09-.12,0-.04,0-.11.03-.13l.06-.61s.01-.06.03-.08c.02-.02.04-.03.07-.03h.01c.19.02.3.07.45.14.05.02.07.07.05.12-.03.11-.06.23-.07.47.23.19.28.24.39.42,0,0,.05,0,.1,0,.04,0,.12,0,.12,0l.57-.07h.3s.16-.2.16-.2l.21-.06s.1-.1.1-.1c0-.04.03-.16.07-.17l.58-.68.23-.04s.1-.1.1-.1c0-.05.03-.14.08-.15.09-.02.16-.07.17-.09.03-.26.05-.3.06-.32.1-.07.16-.11.23-.19.13-.06.18-.1.19-.12v-.48s.18-.16.18-.16l.05-.27s.09-.12.1-.13l.16-.25s.07-.04.1-.04c0,0,.01,0,.02,0,.05.02.2.17.19.22-.02.08-.03.17-.02.19.03.05.08.08.14.11l.14.04s.07.05.07.09c0,.04-.02.08-.05.1l-.25.13-.05.45-.19.16-.04.58-.19.16-.05.46s-.06.09-.09.11c-.05.03-.14.11-.15.15v.61c-.06.15-.14.31-.22.49-.37.78-.74,1.58-.84,2.58l.1.11.41-.13s.11-.12.15-.12h.19s.16-.2.16-.2l.34-.06s.11-.15.12-.17c.02-.03.15-.06.19-.06.05,0,.09-.05.09-.1,0-.05.03-.09.08-.1.07-.01.12-.03.17-.06.32-.04.46-.1.59-.15.13-.05.26-.1.55-.13h0s.09.03.1.08c.01.05-.02.1-.07.12-.02.04-.11.09-.16.09,0,0-.04,0-.05,0v.04s-.02,0-.13.06c-.12.06-.2.1-.26.14-.12.03-.19.05-.25.06-.11.03-.2.05-.26.05,0,0-.12.11-.12.11l-.21.06-.16.19-.22.06-.15.19-.34.06-.16.19-.34.06-.16.19-.21.06-.17.22c-.13.08-.17.12-.17.13,0,.04-.02.19-.05.21l-.14.07-.05.7-.2.16-.05.45-.2.16-.05.45s-.07.1-.1.11c-.05.03-.14.11-.15.14v.48s-.09.11-.13.13c-.05.02-.11.1-.12.12v.36s-.19.16-.19.16l-.05.33-.19.16-.05.33-.19.16-.06.27s-.08.1-.1.12l-.57.67-.56.04Zm-.31-1.02s.07.02.09.05l.07.14.6.05s.12-.15.16-.17l.07-.22c0-.06.04-.1.1-.1.1,0,.15-.06.15-.1v-.29c0-.06.04-.1.1-.1.1,0,.14-.04.15-.08.05-.25.13-.44.22-.63.11-.25.23-.51.26-.91,0-.05.05-.09.1-.09.12,0,.16-.05.17-.1.01-.39.13-.65.24-.9.1-.23.21-.47.25-.81l-.1-.21v.1s-.5,0-.5,0c-.06,0-.1.05-.1.1,0,.05-.04.16-.09.16-.16.02-.24.04-.37.13-.02.04-.09.11-.13.11,0,0-.16.06-.16.06l-.12.24s-.05.06-.09.06h-.01s-.08-.04-.09-.08c-.26.05-.34.17-.41.41-.26.1-.35.15-.43.19-.07.04-.15.08-.29.11-.05.01-.08.05-.08.1,0,.05-.04.14-.1.14l-.2-.04.07.07c0,.06-.07.22-.13.22-.1,0-.15.04-.15.1-.01.17-.05.36-.09.54-.08.37-.15.69,0,.87.06.11.13.16.19.19l.11.13c0,.18.02.22.24.28.04.01.07.14.07.19l.1.2v-.1h.13Zm-3.62-6.8s-.1-.08-.12-.1c-.04,0-.12-.07-.13-.1l-.09-.45s-.12-.13-.12-.17v-.69c.18-.19.21-.25.19-.36l.24-.25.07-.1v-.24s.19-.16.19-.16l.06-.21.44-.28.06-.29s.03-.08.07-.1c.19-.19.22-.21.43-.21h.15c.16.15.2.17.3.2.04.01.07.05.07.1v.33s.1.1.1.1c.06,0,.15.05.15.1v.51s-.29.17-.29.17c-.25-.12-.25-.22-.25-.55l.04-.19-.09.05-.3-.05c-.15.16-.21.25-.27.33-.11.15-.23.31-.29.58-.01.05-.05.08-.1.08-.14,0-.18.05-.18.1v.98c.17.16.18.17.25.27.02.04.08.07.12.07.2-.09.34-.2.49-.31.24-.18.46-.34.76-.42.05-.01.08-.05.08-.1,0-.03,0-.07.03-.09.02-.02.04-.05.07-.05.1,0,.14-.03.15-.08.03-.13.07-.22.11-.31.05-.13.11-.26.13-.5,0-.05.05-.09.1-.09.12,0,.16-.05.16-.1v-.32s.03-.09.08-.1c0,0,.44-.07.45-.07.04,0,.11.07.13.1.07.11.1.16.13.4l.44.17s.08.06.08.11c0,.05-.05.09-.1.09l-.14.03c0,.06-.07.22-.13.22l-.12.03s-.03.16-.03.16c-.14.12-.21.15-.27.17-.15.06-.28.12-.63.13-.05,0-.1.05-.1.1s-.04.14-.1.14c-.11,0-.15.05-.15.1s-.04.14-.1.14c-.1,0-.14.03-.15.08-.01.04-.04.15-.06.18-.08.06-.12.09-.16.14-.02.04-.08.1-.12.1h-.25s.09.05.09.05l-.07.14-.34.06-.16.19s-.05.06-.09.06h-.94Zm10.87-.05s-.06-.01-.08-.04c-.03-.03-.03-.08,0-.12.01-.01.02-.03.02-.06,0-.05.04-.15.09-.16.2-.02.31-.04.48-.13.02-.03.07-.07.11-.07,0,0,.01,0,.02,0,.04.01.09.03.09.08,0,.04-.02.2-.06.21-.17.07-.29.12-.41.18l-.22.1s-.03,0-.04,0Z" fill="#231815" fill-rule="evenodd" stroke-width="0"/>
          <path d="m173.21,9.84s-.13,0-.15-.03h0s-.33-.11-.33-.11c-.05-.01-.08-.05-.07-.1v-.27s-.05.09-.05.09l-.13-.07-.03-1.2c.15-.15.18-.2.18-.28l.26-.21.07-.31.31-.17.16-.31.16-.09c.11-.15.13-.28.14-.46,0-.05.05-.09.1-.09h0c.11,0,.15-.04.15-.1,0-.05.04-.16.09-.16.16-.02.23-.03.36-.11.02-.04.1-.11.14-.11h.02c.09,0,.13,0,.18-.03,0,0,0,0,.02,0,.03,0,.09.03.12.04h.28c.05,0,.1.05.1.1v.23s.05-.09.05-.09l.14.07.05.23s-.01.06-.03.07c-.02.02-.04.02-.07.02,0,0-1.02-.12-1.05-.12l-.09.1c0,.05-.05.14-.1.14,0,0-.12.03-.12.03l-.04.36c0,.05-.05.1-.1.1,0,0-.14.05-.14.05-.09.14-.18.25-.27.37-.26.34-.5.65-.54,1.38.41.29.61.37,1.22.37l.17-.17s.13-.05.15-.06c.13-.03.16-.07.16-.11,0-.06.05-.14.1-.14l.14-.05c.06-.1.13-.17.2-.24.1-.1.2-.2.28-.37.02-.04.16-.06.2-.06h0c.05,0,.1-.04.1-.1,0-.05.05-.14.1-.14.11,0,.15-.04.15-.1,0-.06.05-.14.1-.14.11,0,.15-.04.15-.1,0-.06.05-.14.1-.14.1,0,.15-.04.15-.1,0-.06.05-.14.1-.14.1,0,.15-.04.15-.1.02-.25.02-.37.07-.47l.13-.1.06-.46s.11-.13.11-.13c.09-.14.1-.21.12-.35,0-.05.05-.09.1-.09.12,0,.17-.04.17-.1.02-.26.02-.37.07-.48.14-.08.18-.12.18-.13v-.32s.1-.1.12-.12c.09-.15.11-.26.12-.46,0-.05.05-.09.1-.09l.2.04-.07-.07.03-.44c.23-.18.36-.28.47-.38.02-.02.05-.03.07-.03s.05,0,.07.03c.3.16.41.27.42.78-.3.28-.36.53-.44.79-.04.14-.08.27-.14.41-.14.08-.17.12-.18.13,0,.04-.02.19-.06.2l-.14.07-.15.44-.16.12-.09.33c-.13.08-.17.12-.17.17v.49s-.02.07-.05.09c-.17.33-.38.76-.21,1.17.02,0,.13.07.15.08.05.04.05.06.07.26,0,.08.08.2.12.21h.88s.16-.18.16-.18l.6-.05.16-.19.22-.05s.1-.1.1-.1c0-.05.04-.15.1-.15.21-.01.32-.03.48-.12.02-.04.1-.11.14-.11h.19l.22-.3c.19-.16.38-.28.63-.36,0,0,.02,0,.03,0,.02,0,.05,0,.07.02.03.02.04.06.03.09l-.05.27s-.05.08-.1.08c-.14,0-.18.05-.18.1,0,.05-.03.16-.08.17-.34.07-.51.22-.67.37-.17.15-.32.28-.67.33l-.17.33s-.2.15-.23.15h-.34s-.16.19-.16.19l-.22.05-.16.19-1.45.04c-.16-.25-.25-.38-.34-.5-.15-.2-.29-.39-.31-.88,0-.05-.05-.1-.1-.1h-.15c-.07,0-.17.03-.2.05-.31.56-1.11,1.33-1.62,1.64-.02,0-.03.01-.05.01-.01,0-.02,0-.03,0-.03,0-.05-.03-.06-.06l-.05.03-.16.19-.72.04s-.14.12-.18.12h0s-.11.05-.15.05h0Z" fill="#231815" fill-rule="evenodd" stroke-width="0"/>
          <path d="m154.31,7.31s-.06-.01-.08-.04c-.05-.06-.1-.1-.13-.14v-.35s-.08-.1-.08-.14c0-.04,0-.12.04-.13l.17-.08-.1-.05s.01-.05.03-.07c.02-.02.04-.02.07-.02l.31.02s.14-.14.14-.14c.02-.03.05-.05.09-.05.01,0,.02,0,.04,0,.02,0,.15.07.16.09.04.1.07.18.07.36,0,.03-.04.09-.07.11l-.08.4s-.12.12-.15.14c-.11.06-.15.08-.41.08h0Z" fill="#231815" fill-rule="evenodd" stroke-width="0"/>
          <path d="m164.03,11.76c-.62-.03-1.02-.16-1.26-.43-.26-.29-.36-.75-.31-1.5l-.1-.11c-.06,0-.15-.05-.14-.11v-.18c.2-.18.27-.3.34-.42l.35-.04s.08-.03.1-.07c.06-.22.12-.24.17-.24.01-.01.06-.04.09-.1l.02-.29s.03-.16.07-.17l.15-.26s.16-.06.21-.06h0c.05,0,.1-.04.1-.1,0-.05.05-.14.11-.14h.31s.16-.17.16-.17l.34-.04s.09-.05.13-.09l.44.07s.08.05.07.1l.02.16s.17.04.17.04l.15.27c.06.18.11.33.11.64-.14.16-.21.24-.27.31-.1.13-.19.23-.43.28-.05,0-.08.05-.08.09,0,.05-.05.14-.1.14h0c-.11,0-.15.04-.15.1,0,.05-.05.15-.1.16-.15.01-.23.03-.37.1-.02.04-.1.1-.14.1,0,0-.2,0-.2,0-.05,0-.09.03-.1.08,0,.04-.15.09-.2.1-.09,0-.17.02-.25.05-.05.02-.08.07-.06.12,0,.05.06.21.08.24.15.59.6.64,1.19.64h.31c.16-.11.39-.21.95-.21h.2s.1-.1.1-.1c0-.06.05-.14.1-.14,0,0,.18,0,.18,0,.16-.15.25-.21.35-.28.13-.08.26-.17.35-.37l.5-.04c.06,0,.1.05.1.1v.18s-.48.37-.48.37c-.02.04-.09.1-.13.1l-.16.05-.08.13-.22.05-.16.18-.34.04-.17.18-.35.04-.16.18-.61.03-.16.18s-.05.05-.09.05c0,0-.64-.03-.64-.03Zm.9-3.88c-.2.04-.28.08-.35.11-.1.05-.17.08-.4.1-.14.24-.21.37-.28.5-.08.15-.17.31-.23.54l.1.13c.21-.04.3-.08.37-.12.07-.04.13-.07.29-.1.05,0,.08-.05.08-.09,0-.05.05-.14.1-.14h0c.11,0,.15-.04.15-.1,0-.05.05-.14.1-.14h0c.11,0,.15-.04.15-.1l.02-.49-.1-.1v-.1l-.02.1Z" fill="#231815" fill-rule="evenodd" stroke-width="0"/>
          <path d="m157.56,11.68l-.37-.47s-.1-.09-.1-.13l.05-.81c.3-.26.61-.66.76-1,.02-.04.13-.05.17-.05h0c.06,0,.13-.05.13-.09,0-.05.05-.14.11-.14,0,0,.13-.02.13-.02l.03-.12c0-.05.05-.1.1-.1h.47c.12,0,.23,0,.4.03.05,0,.09.05.08.1,0,.13.04.17.09.18.05,0,.17.05.18.09l.04.31s0,.06-.03.08c-.02.02-.04.03-.07.03,0,0-.29-.05-.42-.07-.27-.05-.42-.08-.47-.08-.03,0-.08.03-.1.07-.02.03-.12.04-.17.04h0c-.05,0-.1.04-.1.1,0,.05-.04.14-.09.14,0,0-.12.05-.12.06,0,.05-.1.17-.16.17h-.01c-.1,0-.15.04-.15.09l-.04.73c0,.05.04.1.1.11h.13s.15.21.15.21c.14.09.23.11.34.11.21,0,.42-.07.56-.14.02-.04.1-.1.14-.1l.45.02s.09-.04.1-.1c0-.05.04-.16.09-.17.24-.03.29-.07.36-.17.03-.04.07-.09.17-.17.02-.04.09-.09.13-.09h.2s.09-.03.1-.09c0-.05.04-.16.09-.17l.43-.05s.13.12.13.15l-.08.32s-.19.16-.21.16h-.23c-.22.09-.28.19-.31.26-.07.12-.15.16-.48.18-.05,0-.09.05-.09.1,0,.05-.05.14-.11.14,0,0-.13.02-.13.02l-.03.12c0,.05-.05.1-.1.1-.21,0-.32.02-.49.1-.02.03-.1.1-.14.1l-1.61-.09Z" fill="#231815" fill-rule="evenodd" stroke-width="0"/>
          <path d="m142.33,14.97s-.07-.02-.09-.05c-.08-.15-.15-.27-.23-.36l.15-.7.07-.14-.12.03.05-.15h-.1s-.11-.17-.11-.21l.13-1.4s-.11-.16-.11-.2c-.04-.02-.11-.21-.1-.25l.07-.8s.11-.11.13-.13c.02-.01.04-.02.06-.02.02,0,.05,0,.07.03.33.3.27.76.19,1.34l-.02.18c.27.33.2.88.13,1.41l-.02.2.08.21v-.1s.28.02.28.02c.11-.1.17-.14.26-.19.02-.01.09-.06.1-.08l.03-.28.22-.14.19-.51s.05-.07.1-.07c0,0,.19-.03.19-.03.07-.1.16-.17.23-.23.11-.09.22-.19.31-.38.2-.08.26-.11.32-.14.07-.03.14-.06.29-.09.05,0,.08-.05.09-.09,0-.05.05-.15.11-.15h.39c.27,0,.33.03.36.05.48.15.82.52.89,1,0,.05.05.08.09.09.04,0,.19.04.2.08l.06.24s.05.08.1.08c.02,0,.65-.07.65-.07.05,0,.08-.04.09-.09,0-.05.05-.16.1-.16.15-.02.23-.05.31-.08.08-.03.16-.07.3-.09.05,0,.08-.05.08-.09,0-.05.05-.14.11-.14l.26-.03-.1-.03c.1-.3.13-.33.46-.38.05,0,.08-.05.08-.09,0-.05.05-.13.11-.13l.21.05-.07-.07.63-.63s.11-.04.11-.05l.1.05v-.13s.03-.17.06-.19c.1-.04.19-.1.2-.12l.09-.22.34-.04.1-.09s.04-.19.07-.2l.14-.06.15-.28.34-.05s.1-.13.12-.15c.22-.18.23-.21.25-.41,0-.05.06-.14.11-.14h.24s-.09-.05-.09-.05l.1-.17c.14-.07.22-.07.3-.07.18,0,.37.05.61.14.03.01.05.03.06.06.01.03,0,.05,0,.08l-.05.72-.21.15-.09.54s-.11.1-.13.12c-.13.24-.15.43-.18.75,0,.07.01.2.03.22.14.1.19.19.23.26.12.19.22.27.79.31.27-.32.38-.43.8-.43h0s.11.09.13.12c.07.11.09.16.1.33,0,0-.12.18-.12.18l-.02.29c0,.05-.05.1-.1.1h-.02c-.1,0-.14.04-.15.09,0,.05-.05.16-.1.17l-.59.06s-.14.12-.18.12h0c-.1-.01-.19-.04-.27-.08-.05-.15-.09-.2-.15-.2l-.51-.03s-.1-.08-.11-.12c-.02-.05-.08-.13-.1-.14l-.23-.09-.05-.32c0-.06-.04-.1-.09-.11s-.15-.06-.14-.11l.05-.77-.1-.11c-.38.06-.48.12-.58.38-.02.04-.15.06-.2.06h0c-.05,0-.1.04-.1.09,0,.05-.05.14-.11.14h-.02c-.1,0-.14.04-.15.09,0,.05-.05.14-.11.14l-.14.03c-.12.14-.23.21-.34.28-.16.1-.33.21-.46.53-.02.04-.15.06-.2.06h0c-.05,0-.1.04-.1.1,0,.05-.05.13-.11.13l-.32-.02-.1.09s-.04.17-.08.18c-.18.05-.28.12-.39.2l-.15.1s-.09.09-.13.09h-.21s-.23.27-.23.27c-.02.03-.04.04-.07.05h-.01s-.04,0-.06-.02c.02.02-.02.03-.07.04-.18.04-.48.11-.78.11-.18,0-.34-.02-.46-.07l-.13-.24-.08-.16-.11.09s-.08-.04-.09-.08l-.06-.34s-.05-.08-.09-.08c-.05,0-.17-.05-.17-.1-.02-.13-.05-.21-.09-.31-.03-.07-.07-.15-.09-.29,0-.04-.05-.08-.09-.08l-.52-.04c-.2.2-.34.32-.48.44-.27.23-.53.46-.7.86-.02.04-.15.05-.2.05,0,0-.21.08-.21.08h.1s-.02.08-.04.1c-.02.02-.05.05-.07.05,0,0-.13.02-.13.02l-.06.35c0,.05-.05.09-.1.09l-.26.03.1.03c-.13.4-.39.57-.85.57Z" fill="#231815" fill-rule="evenodd" stroke-width="0"/>
        </g>
        <path d="m72.17,43.39c-.16,0-.4,0-.4-.39,0-.34.19-.73.47-.99,5.38-.53,5.41-1.54,5.6-9.2l.03-1.13c.06-2.02.06-5.76.06-9.37s0-7.41-.06-9.49l-.03-1.56c-.11-6.05-.14-7.31-5.97-7.65-.13-.1-.28-.51-.28-.8,0-.12.03-.5.39-.5.08,0,3.89.3,8.12.3,1.94,0,4.77-.07,7.26-.42.37,0,.42.32.42.51,0,.33-.14.75-.44.95-.42.01-.88.04-1.3.06-3.71.22-4.19.55-4.24,8.52v7.11c0,.85.36,1.22,1.21,1.22,2.36.11,7.27.18,12.8.18,3.75,0,7.3,0,9.67-.18h0c.7,0,1.14-.47,1.14-1.21,0-.35,0-1.15-.02-2.11-.02-1.44-.04-3.25-.04-4.46-.23-8.48-.38-8.73-5.36-9.12l-.52-.04c-.12-.14-.28-.49-.28-.8,0-.5.28-.5.39-.5.08,0,4.01.3,8.24.3,1.93,0,4.73-.07,7.08-.42.37,0,.42.32.42.51,0,.37-.17.72-.46.97h-.21c-5.11.56-5.21.75-5.38,9.7-.06,2.61-.06,5.29-.06,8.12,0,3.73,0,7.59.06,11.03.12,8.48.75,9.07,5.62,9.5.22.25.36.58.36.87s-.13.45-.39.45c-.08,0-4.31-.35-8.59-.35-2.14,0-4.58.05-6.42.41h-.16c-.24,0-.27-.27-.27-.39,0-.39.18-.79.46-1.03,5.32-.51,5.34-1.75,5.39-7.69,0-.56,0-1.17.02-1.83.06-2.5.12-7.78.12-8.72,0-1.57-.74-1.57-9.81-1.57-5.1,0-11.35.05-13.82.18-1.07.08-1.2.78-1.2,1.39l.06,7.7c.06,9.55.73,9.92,4.81,10.47l.76.11c.25.25.42.55.42.86,0,.25-.22.45-.5.45-.02,0-4.25-.47-8.59-.47-2.81,0-4.96.18-6.56.54Z" fill="#231815" stroke-width="0"/>
      </g>
      <g>
        <path d="m33.79,9.33s0,.04,0,.05c.01.02.03.03.05.03l.27.02c.13.09.45.13.7.13.18,0,.35-.02.49-.05.48-.11.98-.19,1.47-.26.63-.09,1.29-.19,1.89-.37.02,0,.04-.03.04-.05v-.08c.18.01.35.02.52.04.02,0,.03,0,.05-.02.01-.01.02-.03.02-.04,0-.03,0-.06,0-.08l.65.05h0s.06-.02.06-.06c0-.03,0-.05,0-.08l.22.02h0s.06-.02.06-.06v-.08s.37.02.37.02c.03,0,.06-.02.06-.06v-.08s.37.02.37.02h0s.06-.02.06-.06v-.08s.37.02.37.02h0s.06-.02.06-.06v-.08s.37.02.37.02h0s.06-.02.06-.06v-.09s2.96.07,2.96.07h0s.06-.02.06-.06c0-.03,0-.05,0-.08l.37.02h0s.06-.02.06-.06v-.08c.27.02.54.04.8.05h0s.06-.02.06-.06v-.08s.66.05.66.05h0s.03,0,.04-.02c.01-.01.02-.03.02-.04,0-.03,0-.05,0-.08l2.23.16h0s.06-.02.06-.06v-.08c.18.01.35.02.52.04h0s.06-.02.06-.06v-.08c.32.02.63.04.95.07h0s.06-.02.06-.06v-.1c.06,0,.12-.01.17-.01.25,0,.52.08.75.16.22.07.43.14.6.12.03,0,.05-.03.05-.06v-.09s1.55-.17,1.55-.17c.02,0,.04-.02.05-.04.13-.4.12-.46-.01-.6-.06-.06-.13-.14-.22-.32-.01-.02-.03-.03-.05-.03h0c-1.77.02-3.55.04-5.32.06-.03,0-.06.02-.06.06,0,.03,0,.05,0,.08-.55-.04-1.1-.08-1.66-.12h0s-.03,0-.04.02c-.01.01-.02.03-.02.04,0,.03,0,.05,0,.08l-.94-.07h0s-.06.02-.06.06v.08s-.66-.05-.66-.05h0s-.06.02-.06.06v.08s-.66-.05-.66-.05h0s-.06.02-.06.06c0,.03,0,.05,0,.08l-1.23-.09h0s-.06.02-.06.06v.08s-1.09-.07-1.09-.07h0s-.06.02-.06.06v.08s-.66-.05-.66-.05h0s-.03,0-.04.02c-.01.01-.02.03-.02.04,0,.03,0,.05,0,.08l-.51-.03h0s-.06.02-.06.06v.09s-.82.08-.82.08c-.03,0-.05.03-.05.06v.08s-.23-.02-.23-.02c-.02,0-.03,0-.05.02-.01.01-.02.03-.02.04,0,.03,0,.05,0,.08l-.51-.03h0s-.06.02-.06.06v.08s-.23-.02-.23-.02c-.01,0-.03,0-.05.02-.01.01-.02.03-.02.04,0,.03,0,.05,0,.08l-.51-.03h0s-.03,0-.04.02c-.01.01-.02.03-.02.04,0,.03,0,.05,0,.08l-.22-.02s-.06.02-.07.06v.08s-.66-.05-.66-.05h0s-.06.02-.06.06c0,.03,0,.07,0,.1-.4.1-.81.1-1.2.11-.7.01-1.35.02-1.85.54-.02.02-.02.04-.01.06,0,.02.03.04.05.04h.1c.04.16-.04.27-.12.37-.03.04-.06.08-.08.12Z" fill="#231815" stroke-width="0"/>
        <path d="m13.49,6.12c.16.33.23.4.71.48.02,0,.03,0,.05-.01.01-.01.02-.03.02-.04,0-.03,0-.05,0-.08l.65.05h0s.06-.02.06-.06c0-.03,0-.05,0-.08l.65.05h0s.06-.02.06-.06v-.08c.5.03,1,.07,1.5.1h.02s0,0,0,0c.03,0,.06-.02.06-.06v-.08s1.52.1,1.52.1h0s.06-.02.06-.06v-.08s2.52.17,2.52.17h0s.06-.02.06-.06v-.08c.57.04,1.12.08,1.68.12h.06s0,.09,0,.09c0,.02,0,.03.01.05.01.01.03.02.04.02l1.66.12v.08s0,.03,0,.05c.01.01.03.02.04.02.26.02.53.04.8.05,0,.03,0,.06,0,.08,0,.03.02.06.05.06l3.94.42v.08s0,.03,0,.05c.01.01.03.02.04.02l1.08.07v.08s0,.03,0,.04c.01.01.03.02.04.02h.06c.29.02.59.05.88.07v.08s0,.05.03.06c.28.1.59.15.94.15.21,0,.41-.02.59-.03h.07s.03-.02.04-.03c0-.01.01-.03.01-.05l-.1-.58s-.02-.04-.04-.05l-.66-.18v-.09s0-.04-.02-.05c-.02-.01-.04-.01-.06,0l-.27.11c-.4-.19-.94-.31-1.47-.43-.44-.1-.86-.19-1.19-.32,0,0-.01,0-.02,0l-1.37-.1s0-.06,0-.08c0-.03-.02-.06-.06-.06l-.37-.03v-.08s0-.03-.01-.05c-.01-.01-.03-.02-.04-.02h-1.8s0-.07,0-.07c0-.02,0-.03-.01-.05-.01-.01-.03-.02-.04-.02l-.51-.04v-.08s0-.03,0-.05c-.01-.01-.03-.02-.04-.02l-2.08-.15v-.08s0-.03,0-.05c-.01-.01-.03-.02-.04-.02l-2.58-.18h0s-.06.02-.06.06v.08s-2.52-.17-2.52-.17h0s-.06.02-.06.06v.08s-1.37-.1-1.37-.1h0s-.06.02-.06.06v.08s-1.23-.08-1.23-.08t-.02,0c-.53.11-1,.17-1.49.17-.12,0-.25,0-.38-.01h0s-.06.02-.06.05c-.03.29-.06.33-.14.49l-.03.05s0,.04,0,.06c0,.02.03.03.05.03.04,0,.07,0,.11,0Z" fill="#231815" stroke-width="0"/>
        <path d="m20.26,17.96c0-.08.01-.16.02-.23.42-.05.6-.12.75-.53l1.31-.61s.02,0,.02-.02l.3-.38.25.02s.04,0,.05-.02l.3-.38.25.02s.04,0,.05-.02c.07-.1.15-.19.22-.28l.08-.11c.19-.03.37-.07.56-.1.01,0,.02,0,.03-.02.2-.22.4-.44.61-.66.19-.03.37-.07.56-.1.01,0,.03-.01.04-.02.08-.11.17-.22.26-.33l.04-.05c.08,0,.17.01.25.02h0s.04-.01.05-.03c.05-.09.1-.17.15-.25.28-.07.56-.15.85-.22.02,0,.03-.01.04-.03.05-.08.1-.16.14-.24l.25.02s.04,0,.05-.02l.3-.39.56-.1s.02,0,.03-.02l.6-.65c.09,0,.17.01.26.02.02,0,.03,0,.04-.01.01-.01.02-.03.02-.04,0-.03,0-.07,0-.1.1-.02.2-.05.31-.08l.09-.02s.02-.01.03-.02l.3-.38.25.02s.03,0,.04-.02c.01-.01.02-.03.02-.04,0-.03,0-.05,0-.08l.22.02s.05,0,.06-.03c.05-.08.1-.16.14-.24l.25.02h0s.04-.01.05-.03c.05-.08.1-.17.15-.25l.42-.11s.04-.03.05-.06c0-.1.01-.19.02-.28,0-.02,0-.03-.01-.04-.01-.01-.03-.02-.04-.02h-.1c-.07-.37-.1-.4-.45-.46-.04,0-.09-.01-.14-.02-.02,0-.04,0-.06.02-.26.33-.66.44-1.08.55-.28.08-.57.16-.83.31,0,0,0,0-.01.01l-.61.66-.56.1s-.03,0-.04.02c-.15.17-.3.35-.45.53-.19.03-.37.07-.56.1-.02,0-.03.01-.04.03l-.14.24c-.08,0-.17-.01-.25-.02h0s-.04.01-.05.03l-.14.24c-.08,0-.17-.01-.25-.02h0s-.04.01-.05.03c-.05.09-.1.17-.15.25-.28.07-.57.15-.85.22-.01,0-.02.01-.03.02-.08.11-.17.22-.25.33l-.04.05c-.08,0-.17-.01-.25-.02h0s-.03,0-.05.02c-.2.22-.4.44-.6.65l-.26-.02h0s-.04.01-.05.03l-.15.25c-.18.03-.37.07-.55.1-.01,0-.03.01-.04.02l-.12.15-.18.24h-.11s0,0,0,0c-.02,0-.04.01-.05.03l-.14.24-.25-.02h0s-.04.01-.05.03c-.05.08-.1.16-.14.24l-.25-.02s-.06.02-.07.06v.11c-.13.07-.19.07-.33.07-.05,0-.12,0-.2,0-.03,0-.05.03-.06.06,0,.08-.01.16-.02.25-.1.04-.2.08-.29.12-.21.09-.41.18-.69.22-.02,0-.04.02-.05.04-.1.29-.13.33-.29.51h-.11s-.03,0-.04,0c-.01.01-.02.03-.02.04l-.02.25-.26.11s-.04.03-.04.05c-.02.27-.04.53-.06.8v.06s0,.05.03.06c.27.14.39.21.52.45.01.02.03.03.05.03,0,0,.01,0,.02,0l.44-.11s.05-.04.04-.07l-.09-.53.25-.1s.04-.03.04-.05Z" fill="#231815" stroke-width="0"/>
        <path d="m33.01,14.94c-.14.14-.21.14-.31.15-.07,0-.16.02-.27.08,0,0-.01,0-.02.02-.09.11-.17.22-.26.34l-.05.06c-.16.09-.29.11-.4.13-.23.04-.36.09-.52.51-.55.07-.97.31-1.37.54-.46.26-.9.51-1.54.54-.03,0-.05.03-.06.06l-.02.24-1.42.32s-.05.03-.05.05c0,.03,0,.06,0,.09-.32.02-.64.05-.96.07-.03,0-.05.03-.06.06v.09s-.68.09-.68.09c-.03,0-.05.03-.05.06,0,.03,0,.05,0,.08l-.23-.02h0s-.06.02-.06.06v.08c-.12,0-.23-.02-.35-.02h-.03s0,0,0,0c-.03,0-.06.02-.06.06v.08s-.23-.02-.23-.02c-.02,0-.03,0-.05.02-.01.01-.02.03-.02.04,0,.03,0,.05,0,.08l-.65-.05h0s-.06.02-.06.06c0,.03,0,.05,0,.08l-.67-.05s-.05.01-.08.02c0-.02-.03-.03-.05-.03-.05,0-.1,0-.14,0-.03,0-.06,0-.08,0-.17,0-.24.08-.27.13h0c-.11,0-.14-.06-.16-.11-.01-.02-.02-.05-.06-.06-.04,0-.07-.01-.1-.01-.14,0-.2.09-.23.13t0,0l-.48-.03v-.08s0-.04-.01-.05c-.01-.01-.03-.02-.05-.01-.19.03-.39.07-.58.1-.03,0-.05.03-.05.07l.09.72s.02.04.04.05c.52.24,1.41.28,2.2.31.18,0,.36.02.53.03h0s.03,0,.04-.01c.16-.12.38-.13.62-.13.17,0,.35-.01.52-.06.02,0,.04-.03.04-.05,0-.03,0-.05,0-.08l.65.05h0s.06-.02.06-.06v-.08c.08,0,.16.01.23.02.02,0,.05,0,.06-.03l.14-.24.25.02s.06-.02.06-.06v-.08s.52.04.52.04c.01,0,.03,0,.04-.02s.02-.03.02-.04c0-.03,0-.05,0-.08l.37.02h0s.06-.02.06-.06v-.08c.07,0,.14.01.21.02h.02s.03,0,.05-.01c.01-.01.02-.03.02-.04,0-.03,0-.05,0-.08l.37.03s.03,0,.05-.02c.01-.01.02-.03.02-.04,0-.03,0-.06,0-.09l.82-.08s.05-.03.05-.06v-.1c.19-.03.36-.06.54-.1.03,0,.05-.03.05-.06s0-.05,0-.08h.23s.05,0,.06-.02c.04-.07.08-.13.12-.2l.03-.06c.18-.03.37-.06.55-.1.03,0,.05-.03.05-.05s0-.05,0-.08h.23s.05,0,.06-.02l.14-.24c.13,0,.26.02.39.03.02,0,.03,0,.05-.02s.02-.03.02-.04c0-.03,0-.07,0-.1.13-.03.26-.07.4-.1.02,0,.04-.03.05-.06,0-.08.01-.16.02-.24.34-.05.64-.15,1-.36,0,0,.02-.01.02-.02.05-.08.1-.16.14-.24.08,0,.17.01.25.02.02,0,.04,0,.05-.02l.05-.07c.08-.1.16-.21.24-.31.08,0,.17.01.25.02h0s.03,0,.04-.02c.01-.01.02-.03.02-.04,0-.04,0-.07,0-.1l.26-.11s.04-.03.04-.05l.03-.43s0-.04-.03-.05c-.08-.05-.13-.09-.18-.13-.12-.09-.2-.15-.54-.22-.02,0-.04,0-.05.02Z" fill="#231815" stroke-width="0"/>
        <path d="m39.92,19.54s.03,0,.04-.01c.01-.01.02-.03.02-.04v-.08s.09,0,.09,0h0s.04,0,.05-.02c.01-.02.02-.04,0-.06-.03-.08-.05-.14-.08-.2-.08-.19-.13-.32-.14-.66,0-.02,0-.03-.02-.04-.01-.01-.02-.02-.05-.01l-.65.08s0-.05,0-.07c0-.02,0-.03-.01-.04-.01-.01-.03-.02-.04-.02l-.37-.03v-.08s0-.03,0-.05c-.01-.01-.03-.02-.04-.02-.07,0-.15-.01-.22-.02v-.08s-.01-.06-.04-.06l-1.08-.21v-.09s-.02-.06-.05-.07c-.08,0-.17-.01-.25-.02l-.11-.26s-.03-.04-.05-.04l-.42-.03c-.51-.24-1.03-.47-1.84-.56-.02,0-.03,0-.05.01-.01.01-.02.03-.02.04,0,.14-.02.28-.03.43,0,.03.01.05.04.06l1.64.68v.1s0,.03,0,.04c.01.01.03.02.04.02l.37.03v.08s0,.03,0,.05c.01.01.03.02.04.02.07,0,.15.01.22.02v.08s0,.03,0,.05c.01.01.03.02.04.02l.37.03v.08s0,.03,0,.04c.01.01.03.02.04.02l.23.02v.08s0,.03,0,.04c.01.01.03.02.04.02.12,0,.25.02.37.03,0,.02,0,.05,0,.08,0,.02,0,.03.01.05.01.01.03.02.04.02.13,0,.26.02.39.03l.11.26s.02.03.05.04l1.28.23s0,0,.01,0Z" fill="#231815" stroke-width="0"/>
        <path d="m65.83,26.4l-.27-.02s-.02-.04-.04-.08c-.02-.08-.06-.21-.25-.22h0s-.06.02-.06.06v.1s-1.28.33-1.28.33c-.02,0-.04.03-.05.05v.08c-.08,0-.16-.01-.23-.02h0s-.06.02-.06.06c0,.03,0,.06,0,.09-.37.02-.73.04-1.1.06-.03,0-.05.03-.06.06v.08c-.08,0-.16-.01-.23-.02-.02,0-.05,0-.06.03-.05.08-.1.16-.14.24l-.25-.02s-.05,0-.06.03c-.05.08-.1.17-.15.25l-.55.1s-.03.01-.04.03l-.15.25c-.18.03-.37.06-.55.1-.02,0-.03.01-.04.03l-.05.08c-.03.06-.07.11-.1.17l-.55.1s-.03.01-.04.02c-.07.09-.14.17-.2.26l-.09.12c-.08,0-.17-.01-.25-.02h0s-.06.02-.06.06v.08s-.23-.02-.23-.02h0s-.06.02-.06.06c0,.04,0,.07,0,.11-.07.03-.13.06-.2.09-.37.17-.67.33-.82.81l-.44-.14v-.1s0-.04-.01-.05l-.02-.02c-.18-.16-.23-.2-.5-.3l.02-.24s-.01-.05-.04-.06l-.4-.17-.06-.1c-.06-.11-.12-.22-.19-.33-.01-.02-.03-.03-.05-.03-.12,0-.25-.02-.37-.03,0-.03,0-.06,0-.08,0-.03-.01-.05-.04-.06l-.17-.07c-.07-.03-.15-.06-.22-.09l-.11-.27s-.02-.03-.04-.04c-.17-.06-.35-.11-.52-.17,0-.03,0-.06,0-.1,0-.03-.02-.05-.04-.06-.17-.06-.35-.11-.52-.17v-.1s0-.03,0-.05c-.01-.01-.03-.02-.04-.02l-.39-.03-.11-.26s-.02-.03-.03-.03l-1.64-.68.02-.24s-.02-.06-.05-.07c-.6-.07-.87-.23-1.21-.5-.04-.09-.08-.19-.12-.28,0-.02-.03-.04-.05-.04l-.23-.02s0-.05,0-.08c0-.03-.02-.06-.04-.06l-.68-.19-.25-.43s-.03-.03-.05-.03l-.25-.02c-.04-.09-.07-.17-.11-.26,0-.02-.02-.03-.04-.04l-.54-.17-.11-.27s-.02-.03-.03-.03l-.82-.34c-.04-.09-.07-.18-.11-.27,0-.01-.02-.03-.03-.03l-.38-.16v-.1s0-.03,0-.05c-.01-.01-.03-.02-.04-.02l-.37-.03s0-.05,0-.08c0-.03-.01-.05-.04-.06l-.4-.16c-.04-.09-.07-.18-.11-.27,0-.02-.02-.03-.04-.04l-.52-.17v-.1s0-.05-.03-.06l-.8-.33v-.1s0-.03,0-.05c-.01-.01-.03-.02-.04-.02l-.37-.03s0-.05,0-.08c0-.03-.02-.06-.06-.06l-.22-.02s0-.06,0-.08c0-.02,0-.04-.02-.05-.01-.01-.03-.02-.05-.02-.29.03-.58.05-.87.08-.03,0-.05.03-.05.06l-.02.29s.02.06.05.06c.05,0,.1.02.13.02.2.03.25.04.38.13,0,.04,0,.07,0,.11,0,.03.02.06.06.07l.23.02s0,.05,0,.08c0,.02,0,.03.01.05.01.01.03.02.04.02l.39.03.11.26s.02.03.04.04l.68.19c.08.14.16.29.24.43,0,.02.03.03.05.03l.25.02.11.26s.02.03.04.03l.12.03c.19.05.37.1.56.15.08.14.16.28.24.43.01.02.03.03.05.03l.26.02.25.29s.03.02.04.02l.23.02v.08s.02.06.05.07l.23.02v.08s.02.06.05.07l.25.02.11.26s.03.04.05.04l.25.02.11.26s.03.04.05.04l.25.02.11.26s.01.02.02.03c.11.07.2.11.29.11.04,0,.07,0,.1-.01.01,0,.02,0,.03,0,.03.02.08.25.1.34,0,.02.03.04.05.05.51.06.68.2.89.39.09.08.19.17.33.26,0,0,.02,0,.03,0l.25.02.11.26s.03.04.05.04l.37.03v.08s0,.03,0,.04c.01.01.03.02.04.02.07,0,.15.01.23.02v.08s.02.06.05.07l.25.02.11.26s.03.04.05.04l.39.03c.04.09.07.17.11.26,0,.02.03.04.05.04l.37.03v.08s0,.05.04.06c.17.06.34.11.52.17,0,.03,0,.06,0,.1,0,.02,0,.03.01.04.01.01.03.02.04.02l.37.03v.08s0,.03,0,.05c.01.01.03.02.04.02.07,0,.15.01.22.02v.08s0,.05.03.06l.38.16c0,.08-.01.16-.02.24,0,.03.02.06.05.06.3.05.38.11.47.17.09.06.18.12.47.18.14.58.55.82,1,1.07.16.1.33.19.49.31l.12.28s.02.03.04.04c.18.06.36.12.54.17.04.09.07.18.11.27,0,.02.03.04.05.04l.25.02.11.26s0,.02.02.02c.12.1.21.12.27.12h.02s.07.22.09.31c0,.03.03.05.05.05.03,0,.05,0,.08,0l-.02.37s.02.06.06.06h.04c.16.01.32.02.47.04l-.02.22s0,.03.01.05c.01.01.03.02.04.02l.43.03h0s.03,0,.04-.02c.01-.01.02-.03.02-.04,0-.04,0-.07,0-.11.07-.05.1-.09.14-.13.04-.04.07-.08.14-.12.02-.02.03-.04.02-.07-.01-.04-.02-.07-.03-.1-.04-.14-.06-.19-.07-.46,0-.03-.02-.06-.06-.06l-.25-.02-.24-.42s-.03-.03-.05-.03l-.26-.02c-.12-.19-.24-.38-.37-.58-.01-.02-.03-.03-.05-.03-.07,0-.15-.01-.22-.02v-.08s0-.05-.04-.06c-.18-.06-.36-.12-.54-.17h0s.61.14.61.14c0,0,0,0,.01,0,.02,0,.04,0,.05-.02.31-.42.76-.62,1.25-.82.23-.1.46-.19.68-.32,0,0,.02-.01.02-.02.05-.09.1-.17.15-.25.28-.07.57-.15.85-.22.02,0,.04-.03.05-.05v-.1c.14-.03.27-.07.4-.1.02,0,.03-.01.04-.03l.14-.24.25.02h0s.04-.01.05-.03c.05-.08.1-.16.14-.24.08,0,.17.01.25.02h0s.06-.02.06-.06v-.09s1.27-.19,1.27-.19c.03,0,.05-.03.05-.06,0-.03,0-.07,0-.1l1.57-.45s.04-.03.04-.05l.05-.72s-.02-.06-.06-.07Z" fill="#231815" stroke-width="0"/>
        <path d="m57.77,34.86c-.1-.08-.2-.16-.31-.24v-.11s0-.03,0-.05c-.01-.01-.03-.02-.04-.02l-.22-.02v-.08s-.01-.06-.04-.06l-1.37-.23v-.09s0-.03,0-.05c-.01-.01-.03-.02-.04-.02l-.37-.03s0-.05,0-.08c0-.03-.02-.05-.04-.06-.4-.11-.8-.22-1.2-.33l-.16-.04v-.09s0-.05-.03-.06l-.52-.17v-.1s0-.03,0-.04c-.01-.01-.03-.02-.04-.02l-.23-.02v-.08s-.01-.06-.04-.06l-.82-.2c-.02-.06-.05-.12-.07-.18l-.04-.09s-.02-.03-.04-.03l-.52-.17v-.1s0-.05-.03-.06l-.52-.17v-.1s0-.03,0-.05c-.01-.01-.03-.02-.04-.02l-.37-.02s0-.06,0-.08c0-.03-.02-.05-.04-.06-.17-.06-.34-.11-.52-.17,0-.03,0-.06,0-.1,0-.03-.02-.06-.06-.06l-.37-.03v-.08s0-.05-.03-.06l-.8-.33s0-.07,0-.1c0-.03-.02-.06-.06-.06l-.65-.05v-.08s0-.03,0-.05c-.01-.01-.03-.02-.04-.02l-.22-.02v-.08s0-.03,0-.05c-.01-.01-.03-.02-.04-.02h-.02c-.12,0-.23-.02-.35-.02v-.08s0-.03,0-.05c-.01-.01-.03-.02-.04-.02l-.37-.03s0-.05,0-.08c0-.03-.02-.06-.06-.06l-.37-.03v-.08s0-.03,0-.05c-.01-.01-.03-.02-.04-.02l-.37-.03s0-.05,0-.08c0-.02,0-.03-.01-.04-.01-.01-.03-.02-.04-.02-.12,0-.25-.02-.37-.03v-.08s0-.05-.04-.06l-.52-.17v-.1s0-.03,0-.05c-.01-.01-.03-.02-.04-.02l-.37-.02v-.08s0-.03,0-.04c-.01-.01-.03-.02-.04-.02l-.23-.02v-.08s0-.03,0-.05c-.01-.01-.03-.02-.04-.02l-.39-.03-.11-.26s-.03-.04-.05-.04l-.37-.03v-.08s0-.03,0-.04c-.01-.01-.03-.02-.04-.02h-.02c-.07,0-.14-.01-.21-.02v-.08s0-.03,0-.05c-.01-.01-.03-.02-.04-.02l-.22-.02v-.08s0-.03,0-.05c-.01-.01-.03-.02-.04-.02l-.25-.02-.11-.26s-.03-.04-.05-.04c-.12,0-.25-.02-.37-.03v-.08s0-.05-.04-.06l-.52-.17v-.1s0-.03,0-.05c-.01-.01-.03-.02-.04-.02l-.25-.02-.11-.26s-.03-.04-.05-.04c-.12,0-.25-.02-.37-.03v-.08s-.01-.06-.04-.06c-.31-.07-.63-.13-.94-.2v-.09s0-.03,0-.05c-.01-.01-.03-.02-.04-.02l-.37-.03s0-.05,0-.08-.01-.05-.04-.06c-.11-.04-.14-.02-.16,0-.02.02-.02.06-.02.08,0,.03,0,.04-.03.06-.09.06-.16.08-.2.09-.04.01-.08.02-.09.07-.01.05.02.08.1.18h0s0,.08,0,.12c0,.03.02.06.04.06l.66.18v.09s0,.03,0,.04c.01.01.03.02.04.02l.23.02v.08s0,.03,0,.04c.01.01.03.02.04.02l.23.02v.08s.02.06.05.07l.23.02v.08s0,.03,0,.04c.01.01.03.02.04.02.12,0,.25.02.37.03v.08s0,.05.04.06l.52.17v.1s0,.03,0,.05c.01.01.03.02.04.02l.25.02.11.26s.03.04.05.04c.12,0,.25.02.37.03v.08s0,.03,0,.05c.01.01.03.02.04.02l.22.02v.08s0,.03,0,.05c.01.01.03.02.04.02l.25.02.11.26s.03.04.05.04c.12,0,.25.02.37.03v.08s0,.05.04.06c.17.06.35.11.52.17v.1s0,.06.04.06l.66.18v.09s0,.03,0,.04c.01.01.03.02.04.02l.23.02v.08s.01.06.04.06l.94.2v.09s0,.03,0,.04c.01.01.03.02.04.02.07,0,.15.01.22.02v.08s.01.06.04.06l.12.03c.18.05.36.1.54.15v.09s0,.06.04.06l1.36.37v.09s0,.05.03.06l.8.33s0,.07,0,.1c0,.03.02.06.06.06.07,0,.15.01.22.02,0,.03,0,.05,0,.08,0,.03.02.06.06.06l.37.03v.08s0,.03,0,.05c.01.01.03.02.04.02.07,0,.15.01.22.02,0,.03,0,.05,0,.08,0,.02,0,.03.01.05.01.01.03.02.04.02l.39.03.11.26s.03.04.05.04l.39.03.11.26s.03.04.05.04c.07,0,.15.01.22.02v.08s.01.06.04.06l.68.19.11.27s.02.03.04.04l.82.2s.04.1.06.14l.05.12s.03.04.05.04l.37.03s0,.05,0,.08c0,.02,0,.03.01.05.01.01.03.02.04.02l.37.03v.08s.02.06.05.07l.23.02v.08s0,.03,0,.04c.01.01.03.02.04.02.12,0,.25.02.37.03v.08s0,.03,0,.05c.01.01.03.02.04.02l.66.05s0,.05,0,.08c0,.02,0,.03.01.04.01.01.03.02.04.02l.54.04.11.26s.03.04.05.04l.23.02v.08s0,.05.03.06c.04.02.09.02.12.02.13,0,.19-.09.22-.14,0,0,0,0,0,0,.05,0,.1,0,.14,0,.21,0,.37.06.53.13.09.03.18.07.27.1,0,0,.01,0,.02,0,.01,0,.02,0,.04-.01.01-.01.02-.03.02-.05l.03-.43s0-.04-.02-.05l-.08-.06Z" fill="#231815" stroke-width="0"/>
        <path d="m7.96,27.65l-.02.23s0,.03.02.05c.01.01.03.02.04.02h0c.51-.04.92-.12,1.1-.69,0-.02,0-.04,0-.05,0-.02-.02-.03-.04-.03-.06-.01-.11-.02-.15-.03-.18-.03-.24-.04-.36-.13v-.11s0-.03,0-.05c-.01-.01-.03-.02-.04-.02l-.22-.02v-.08s-.01-.06-.04-.06c-.28-.06-.56-.12-.84-.18l-.1-.02v-.09s0-.06-.04-.06l-.66-.18s0-.06,0-.09c0-.03-.02-.06-.06-.06l-.22-.02s0-.06,0-.08c0-.03-.02-.06-.05-.06l-.8-.19s0-.06,0-.09c0-.03-.02-.06-.06-.07l-.23-.02s0-.05,0-.08c0-.03-.02-.06-.05-.06l-.66-.18s0-.06,0-.09c0-.02,0-.03-.01-.04-.01-.01-.03-.02-.04-.02-.17-.01-.34-.02-.51-.04v-.08s0-.03,0-.04c-.01-.01-.03-.02-.04-.02l-.23-.02s0-.06,0-.08c0-.03-.02-.06-.06-.06l-.51-.04v-.08s-.02-.06-.05-.07l-.23-.02v-.08s-.01-.06-.04-.06l-.94-.2v-.09s0-.03,0-.04c-.01-.01-.03-.02-.04-.02l-1.13-.08s-.02-.05-.03-.08c-.02-.08-.06-.23-.24-.23,0,0-.02,0-.02,0-.03,0-.05.02-.06.06v.11c-.25.14-.26.15-.31.45l-.02.13s0,.05.02.06c.11.08.19.14.27.2.26.2.37.29,1.14.34.19.18.4.21.62.24.15.02.3.04.47.11v.1s.02.06.05.07l.23.02s0,.05,0,.08c0,.03.02.05.04.06l1.22.36v.09s.02.06.05.07l.22.02s0,.06,0,.08c0,.03.02.06.05.06l.98.21c.15.06.27.12.39.18.31.15.58.29,1.12.35,0,.08-.01.15-.02.23,0,.03.02.06.05.06.27.04.41.11.56.18.13.06.27.13.51.18Z" fill="#231815" stroke-width="0"/>
        <path d="m8.82,28.46s-.05.03-.06.06l-.04.57s0,.04.02.05c.03.03.06.05.07.06,0,.02.02.05.05.08,0,.02.03.02.04.03.18.02.32.09.42.13.07.03.11.05.15.05h0s.06-.02.06-.06v-.08s.37.02.37.02c.03,0,.06-.02.06-.06v-.08c.07,0,.14.01.21.02h.02s.03,0,.05-.01c.01-.01.02-.03.02-.04,0-.03,0-.06,0-.09h.02c.31-.02.63-.05.94-.07.03,0,.05-.03.06-.06v-.08s.37.02.37.02h0s.06-.02.06-.06v-.08s.23.02.23.02c.02,0,.03,0,.05-.02s.02-.03.02-.04c0-.03,0-.06,0-.09.27-.03.54-.05.82-.08.03,0,.05-.03.05-.06,0-.03,0-.05,0-.08.27.02.53.04.8.06h0s.06-.02.06-.06v-.08s.66.05.66.05h0s.03,0,.04-.02c.01-.01.02-.03.02-.04,0-.03,0-.05,0-.08l.94.06s.06-.02.06-.06v-.08s1.09.08,1.09.08h0s.06-.02.06-.06v-.08c.08,0,.16.01.23.02h0s.06-.02.06-.06c0-.02,0-.04,0-.07.16.05.32.11.49.16.02,0,.04,0,.05,0,.02-.01.03-.03.03-.05v-.09s1.97,0,1.97,0c.47-.1,1.03-.16,1.59-.16.94,0,1.78.15,2.38.43,0,0,.01,0,.02,0l.37.03s0,.05,0,.08c0,.02,0,.03.01.05.01.01.03.02.04.02.09,0,.17.01.26.02.01.01.03.04.05.07.04.06.08.13.16.2-.07.11-.08.24-.03.34.03.07.09.12.16.14,0,.03,0,.06,0,.09,0,.02,0,.04.02.05.01.01.02.02.05.02l.72-.09s.04-.02.05-.03c.11-.23.17-.44.21-.87,0-.02,0-.03-.01-.04-.01-.01-.03-.02-.04-.02l-.24-.02c-.01-.07-.02-.1-.02-.12,0-.04,0-.05-.04-.08-.01-.01-.03-.03-.07-.07-.54-.77-1.96-.92-3.14-.96h-.03c-.17,0-.39.06-.5.09-.02,0-.04.01-.05.01-1.32-.32-2.75-.32-4.18,0l-.99-.07h0s-.06.02-.06.06v.08s-.8-.05-.8-.05h0s-.06.02-.06.06c0,.03,0,.06,0,.09l-2.68.1s-.06.02-.06.06c0,.03,0,.05,0,.08l-.22-.02s-.03,0-.04.01c-.01.01-.02.03-.02.04v.09s-.82.08-.82.08c-.03,0-.05.03-.05.06v.08s-.37-.02-.37-.02h0s-.06.02-.06.06v.08s-.37-.02-.37-.02h0s-.06.02-.06.06v.08s-.37-.02-.37-.02c-.03,0-.06.02-.06.06v.08s-.66-.05-.66-.05h0s-.06.02-.06.06v.11c-.14.06-.2.06-.36.07-.05,0-.11,0-.18,0Z" fill="#231815" stroke-width="0"/>
        <path d="m16.59,32.57s.06-.02.06-.06v-.08c.18.01.35.02.52.04,0,0,.01,0,.02,0,.35-.1.69-.19,1.04-.29,1.97-.55,4-1.12,5.86-1.81.02,0,.04-.03.04-.05.01-.14.02-.29.03-.43,0-.03-.02-.05-.05-.06-.23-.06-.45-.09-.66-.09-.64,0-1.16.24-1.7.5-.28.13-.57.27-.87.37l-.87.08s-.05.03-.05.06v.08s-.23-.02-.23-.02h0s-.06.02-.06.06v.08c-.13,0-.25-.02-.37-.03h0s-.06.02-.06.06c0,.03,0,.05,0,.08l-.65-.05h0s-.03,0-.04.02c-.01.01-.02.03-.02.04,0,.03,0,.05,0,.08l-.37-.03h0s-.06.02-.06.06v.1s-.54.1-.54.1c-.03,0-.05.03-.05.05v.09s-1.26.05-1.26.05c-1.15.31-2.32.47-3.3.47-.05,0-.11,0-.16,0h0s-.04.01-.05.03c-.05.08-.09.13-.13.18-.07.09-.13.15-.2.39,0,.02,0,.04,0,.05.01.02.03.03.05.03.04,0,.08,0,.12,0,.24.22.85.24,1.34.25.09,0,.17,0,.25,0h0s.06-.02.06-.06c0-.03,0-.05,0-.08.27.02.53.04.8.05h0s.06-.02.06-.06v-.08s.8.06.8.06h0s.04-.01.05-.03c.05-.08.1-.16.14-.24l.53.04h0Z" fill="#231815" stroke-width="0"/>
        <path d="m38.71,32.99c-.17-.06-.34-.11-.52-.17v-.1s0-.03,0-.04c-.01-.01-.03-.02-.04-.02l-.66-.05s0-.05,0-.08c0-.03-.02-.06-.06-.07l-.23-.02s0-.05,0-.08c0-.03-.02-.05-.04-.06l-1.24-.37-.11-.27s-.03-.04-.05-.04c-.17-.01-.34-.02-.51-.04v-.08s0-.05-.03-.06c-.55-.26-.86-.33-1.57-.4-.01,0-.04,0-.05.02-.03.03-.05.06-.06.07-.02,0-.04.02-.08.05-.02.01-.03.04-.03.06.02.1.02.14.02.16,0,.04.01.05.04.08.01.01.03.03.07.07.37.48.95.66,1.57.85.31.1.62.19.92.33,0,.03,0,.07,0,.1,0,.02,0,.03.01.05.01.01.03.02.04.02l.37.03v.08s.02.06.05.07c.07,0,.15.01.23.02v.08s.01.06.04.06c.31.07.63.14.94.2v.09s0,.03.01.05c.01.01.03.02.04.02l.36.02v.08s0,.03,0,.05c.01.01.03.02.04.02l.37.03s0,.05,0,.08c0,.02,0,.03.01.04.01.01.03.02.04.02l.37.03v.08s0,.03,0,.05c.01.01.03.02.04.02l.37.03s0,.05,0,.08c0,.03.02.06.06.06.12,0,.25.02.37.03,0,.03,0,.06,0,.08,0,.03.03.06.06.06l.36.02v.08s.01.06.04.06l.8.19v.09s0,.03,0,.05c.01.01.03.02.04.02.07,0,.15.01.22.02v.08s.01.06.04.06l1.08.21v.09s0,.03,0,.04c.01.01.03.02.04.02l.37.03v.08s.01.06.04.06l.82.2.11.27s.03.04.05.04c.07,0,.15.01.23.02v.08s.02.06.05.07h.14s0,.01,0,.01c.03,0,.06-.02.06-.06v-.07s.64.17.64.17c0,0,.01,0,.02,0,.02,0,.04,0,.05-.02v-.02q.11-.14.25-.21l.04-.02s.04-.04.03-.07c-.04-.15-.07-.29-.11-.44,0-.02-.02-.04-.04-.04-.17-.06-.35-.11-.52-.17v-.1s0-.03,0-.05c-.01-.01-.03-.02-.04-.02l-.51-.04s0-.06,0-.08c0-.03-.02-.06-.06-.06l-.22-.02s0-.06,0-.08c0-.03-.02-.06-.06-.06l-.37-.02s0-.05,0-.08c0-.02,0-.03-.01-.05-.01-.01-.03-.02-.04-.02-.17-.01-.34-.02-.51-.04v-.08s0-.03,0-.05c-.01-.01-.03-.02-.04-.02l-.37-.03v-.08s0-.03,0-.04c-.01-.01-.03-.02-.04-.02-.17-.01-.34-.02-.51-.04v-.08s0-.03,0-.05c-.01-.01-.03-.02-.04-.02l-.51-.04v-.08s0-.03,0-.05c-.01-.01-.03-.02-.04-.02l-.37-.03v-.08s0-.03,0-.04c-.01-.01-.03-.02-.04-.02l-.37-.03s0-.06,0-.08c0-.03-.02-.06-.06-.06l-.37-.03v-.08s0-.05-.04-.06l-.52-.17s0-.06,0-.1c0-.03-.02-.06-.06-.06l-.8-.06s0-.06,0-.08c0-.03-.02-.05-.04-.06Z" fill="#231815" stroke-width="0"/>
        <path d="m16.38,36.91c.13.04.26.07.42.07.12,0,.24-.02.37-.06.02,0,.04-.03.04-.05v-.08s.37.03.37.03c.02,0,.03,0,.04-.01.01-.01.02-.03.02-.04v-.08s.37.03.37.03h0s.03,0,.04-.02c.01-.01.02-.03.02-.04,0-.03,0-.06,0-.09l.96-.07s.05-.03.06-.06v-.1c.28-.07.56-.14.84-.21.02,0,.04-.03.05-.05,0-.03,0-.05,0-.08h.23s0,.01,0,.01c.03,0,.06-.02.06-.06v-.08s.23.02.23.02c.01,0,.03,0,.05-.02.01-.01.02-.03.02-.04,0-.03,0-.06,0-.1l.54-.1s.05-.03.05-.05v-.08c.13,0,.25.02.37.02h0s.04-.01.05-.03c.05-.08.1-.16.14-.24l.39.03s.05,0,.06-.03c.05-.09.1-.17.15-.25.28-.07.57-.15.85-.22.02,0,.03-.01.04-.03l.05-.08c.03-.05.06-.11.1-.16l.25.02s.05,0,.06-.03c.05-.08.1-.16.14-.24.08,0,.17.01.25.02h0s.04-.01.05-.03l.14-.24.25.02s.06-.02.07-.06c0-.03,0-.05,0-.08.07,0,.15.01.22.02h0s.03,0,.04-.01c.01-.01.02-.03.02-.04,0-.03,0-.06,0-.08.07,0,.15.01.23.02h0s.03,0,.04-.02c.01-.01.02-.03.02-.04,0-.03,0-.05,0-.08l.37.02s.04,0,.06-.03l.15-.25.55-.1s.04-.02.05-.04c.03-.08.07-.16.1-.24l.05-.13s.07,0,.1,0c.02,0,.04,0,.05-.03.27-.39.35-.66.39-1.3,0-.02,0-.04-.03-.05-.31-.2-.61-.55-.78-.89-.01-.03-.04-.04-.07-.03-.15.04-.29.08-.44.11-.01,0-.03.01-.04.03-.05.08-.09.13-.13.18-.07.09-.13.15-.2.39,0,.03,0,.05.02.07.35.22.41.35.22.78-.03.02-.05.06-.07.1,0,0,0,.02-.01.03-.01,0-.02.01-.03.02-.01.02-.02.04-.01.05.03.11.04.14.05.21-.02,0-.04,0-.06,0-.01,0-.03,0-.05.02-.2.2-.44.26-.71.33-.15.04-.3.08-.46.15-.02,0-.04.03-.04.05,0,.03,0,.05,0,.08l-.37-.02s-.05,0-.06.03l-.14.24-.25-.02s-.03,0-.04.01c-.01.01-.02.03-.02.04v.09s-.68.09-.68.09c-.02,0-.04.01-.05.03-.04.06-.08.13-.12.2l-.03.06c-.18.03-.37.06-.55.1-.02,0-.03.01-.04.03-.05.08-.1.16-.14.24-.08,0-.17-.01-.25-.02-.02,0-.03,0-.05.02-.01.01-.02.03-.02.04,0,.03,0,.05,0,.08-.08,0-.15-.01-.23-.02-.03,0-.06.02-.06.06v.1s-1.28.33-1.28.33c-.02,0-.03.01-.04.03l-.14.24c-.13,0-.26-.02-.39-.03h0s-.06.02-.06.06v.08s-.23-.02-.23-.02h0s-.06.02-.06.06v.08s-.37-.02-.37-.02h0s-.06.02-.06.06v.08s-.52-.03-.52-.03c-.02,0-.04,0-.06.03l-.06.11s-.05.09-.08.14c-.18-.01-.36-.03-.53-.04h0s-.06.02-.06.06v.09c-.33.02-.64.05-.97.07-.03,0-.05.03-.06.06l-.06.86s.02.06.05.06c.09.02.17.04.24.06Z" fill="#231815" stroke-width="0"/>
        <path d="m10.46,32.66l.03-.43s0-.04-.02-.05c-.03-.03-.06-.05-.07-.06,0-.02-.02-.04-.05-.08-.01-.02-.04-.03-.07-.03-.07.02-.15.03-.22.03-.25,0-.51-.09-.8-.2-.22-.08-.47-.18-.75-.23-.05-.26-.09-.33-.19-.48l-.05-.09s-.03-.03-.05-.03h-.11c-.13-.33-.05-.66.03-1.02.04-.16.08-.33.1-.5,0-.03-.02-.06-.05-.07-.37-.08-.46-.09-.68-.08-.1,0-.24,0-.47,0h0s-.03,0-.04.02c-.01.01-.02.03-.02.04l.03,1.58s.02.06.06.06c.03,0,.05,0,.08,0l-.02.37s.02.06.06.06.07,0,.1,0l.1.4s.02.03.04.04l.38.16v.1s0,.03,0,.04c.01.01.03.02.04.02l.23.02v.08s0,.03.01.05c.01.01.03.02.05.02.17.01.34.02.5.04v.08s0,.03,0,.05c.01.01.03.02.04.02.07,0,.15.01.22.02,0,.03,0,.05,0,.08,0,.03.01.05.04.06.21.09.53.15.83.15.2,0,.56-.03.69-.22,0,0,0-.02,0-.03Z" fill="#231815" stroke-width="0"/>
        <path d="m23.59,38.06l.15-.25.55-.1s.03-.01.04-.03c.05-.08.1-.16.14-.24.13,0,.26.02.39.03.02,0,.04,0,.06-.03.04-.07.08-.13.12-.2l.03-.06,1.29-.33s.03-.01.04-.03c.04-.06.08-.13.12-.2l.03-.05c.08,0,.17.01.25.02h0s.04-.01.05-.03c.05-.08.1-.16.14-.24.08,0,.17.01.25.02h0s.06-.02.06-.06v-.11c.12-.06.18-.07.32-.07.06,0,.12,0,.21-.01.03,0,.05-.03.06-.06,0-.08.01-.16.02-.24.79-.1.8-.58.82-1.43,0-.02-.01-.04-.03-.05-.1-.06-.16-.11-.2-.15-.15-.12-.22-.16-.66-.21-.02,0-.05,0-.06.03l-.05.08c-.04.06-.07.12-.11.18,0,0-.01.01-.02.02-.02.04,0,.08.02.13,0,0,0,.02.01.03h0q-.07.17-.05.2s0,0,0,0c0,.18-.04.25-.1.33-.02.03-.04.07-.06.11-.01,0-.02,0-.03,0-.1,0-.16.05-.21.1-.06.05-.1.08-.18.06-.01,0-.04,0-.05,0-.01.01-.02.03-.02.05,0,.04-.01.05-.09.06-.06,0-.16.02-.18.13-.13.03-.27.07-.4.1-.02,0-.03.01-.04.03l-.14.24-.25-.02s-.05,0-.06.03c-.05.08-.1.17-.15.25-.57.15-1.14.29-1.71.44h-.02s-.04.03-.05.06v.1s-.54.1-.54.1c-.03,0-.05.03-.05.05v.1c-.18.03-.36.06-.54.1-.02,0-.03.01-.04.03-.05.08-.1.16-.14.24-.08,0-.17-.01-.25-.02-.02,0-.03,0-.04.01-.01.01-.02.03-.02.04v.08c-.13,0-.25-.02-.37-.03h0s-.04.01-.05.03c-.05.08-.1.17-.15.25l-.7.09s-.05.03-.05.06v.1c-.06.01-.13,0-.21,0-.03,0-.07,0-.1,0-.09,0-.21.01-.27.11,0,0,0,.02-.01.03l-.05.72s0,.03.01.05c.01.01.03.02.04.02.07,0,.15,0,.22,0,.81,0,1.59-.27,1.99-.43.02,0,.04-.03.04-.05v-.08s.37.03.37.03c.03,0,.05,0,.06-.03.05-.08.1-.16.14-.24.13,0,.26.02.39.03.02,0,.05,0,.06-.03Z" fill="#231815" stroke-width="0"/>
        <path d="m17.73,39.65q.1-.14.23-.21l.04-.02s.04-.04.03-.07c-.01-.04-.02-.07-.03-.1-.04-.14-.06-.19-.07-.47,0-.03-.02-.06-.05-.06-.08,0-.17-.01-.25-.01-.15,0-.41.01-.51.1l-.77-.05v-.08s-.01-.06-.04-.06l-.96-.21c-.12-.25-.27-.42-.51-.59l.05-.68s0-.03-.02-.05-.03-.02-.05-.02l-.62-.04c.17-.43.11-.6-.28-.87-.11-.08-.24-.09-.39-.1-.25-.01-.5-.03-.72-.4-.04-.04-.06-.07-.08-.09,0-.02,0-.07-.03-.18,0-.03-.03-.05-.06-.05h-.02c-.19,0-.34.05-.44.08-.02,0-.04.01-.05.02v-.07s0-.03,0-.05c-.01-.01-.03-.02-.04-.02l-.24-.02c-.03-.13-.07-.26-.1-.4,0-.02-.03-.04-.05-.05-.08,0-.16-.01-.24-.02-.02-.16-.06-.29-.09-.41-.06-.23-.12-.43-.1-.84,0-.02,0-.03-.02-.05s-.03-.02-.05-.02l-.87.08s-.05.02-.05.05l-.2.85s0,.05.02.06c.21.16.35.43.47.69.12.25.24.5.44.66.01,0,.02.01.03.01.08,0,.17.01.25.02l.11.26s.03.04.05.04l.25.02.11.26s.03.04.05.04l.22.02v.08s.01.06.04.06l1.08.21s0,.06,0,.09c0,.03.02.06.06.07l.23.02s0,.05,0,.08c0,.03.01.05.04.06l.38.16v.04s-.08,0-.08,0h0s-.04,0-.05.02c-.01.02-.02.04-.01.05.12.39.23.78.35,1.18,0,.02.02.03.03.04l.4.16s.04.1.06.15l.05.12s.02.03.05.04l1.37.24s0,.06,0,.09c0,.03.02.06.06.06.07,0,.15.01.22.02,0,.03,0,.06,0,.08,0,.02,0,.03.02.05.01.01.03.02.04.02h0l1.3-.05s.04,0,.05-.02h0Z" fill="#231815" stroke-width="0"/>
        <path d="m54.04,38.43s-.02-.06-.06-.06l-1.56-.11c-1.03-.39-2.64-.73-4.11-.86-.02,0-.03,0-.05.01-.01.01-.02.02-.02.04l-.03.43s.02.06.06.07h.12c.33.41.66.45,1.05.45h.17c.26,0,.53,0,.86.12v.1s0,.03,0,.04c.01.01.03.02.04.02l.65.05v.08s0,.03,0,.04c.01.01.03.02.04.02l.8.06v.08s.02.06.05.07l.23.02v.08s0,.03,0,.04c.01.01.03.02.04.02l.96.07h0s.01.03.01.03c0,.02.03.04.05.04.1,0,.19.01.28.02h0s.03,0,.04-.02c0,0,0,0,0,0,.03.01.08.02.11-.02l.39.03h0s.06-.02.06-.06l.05-.72s-.02-.06-.05-.06c-.2-.05-.23-.11-.23-.11Z" fill="#231815" stroke-width="0"/>
        <path d="m26.9,40.13v-.1c.14-.03.27-.07.4-.1.02,0,.03-.01.04-.03l.15-.26c.16-.09.3-.12.42-.15.26-.07.47-.12.64-.62.08,0,.16.01.24.02h0s.05-.01.06-.04l.17-.4.43-.25s.01,0,.02-.01c.09-.11.1-.19.12-.26.02-.09.04-.16.19-.28.02-.02.03-.04.02-.06-.07-.29-.15-.59-.23-.88,0-.02-.03-.04-.05-.05l-.72-.05h0s-.05.01-.06.04c-.1.22-.17.42-.2.82-.08.03-.08.12-.08.16,0,.02,0,.05-.01.05-.03,0-.05.02-.06.04-.08.25-.12.28-.13.28,0,0-.02,0-.03,0-.02,0-.04,0-.06,0-.07,0-.14.03-.22.1-.02.02-.03.05-.01.07,0,0,0,.01,0,.02-.02,0-.04.02-.05.06,0,0,0,.02,0,.02h-.05s-.04,0-.05.02c-.28.38-.68.54-1.11.71-.22.09-.45.18-.66.3,0,0-.02.01-.02.02-.05.08-.1.16-.14.24-.08,0-.17-.01-.25-.02h0s-.06.02-.06.06v.08s-.37-.02-.37-.02c-.03,0-.05,0-.06.03l-.14.24-.53-.04h0s-.06.02-.06.06v.1c-.15.05-.25.06-.35.07-.18.02-.32.04-.52.27-.03,0-.07,0-.11,0h0s-.03,0-.04.02c-.01.01-.02.03-.02.04,0,.05,0,.1,0,.14,0,.03.02.06.06.07h.11c.05.07.09.11.12.15.04.04.08.07.12.14.01.02.03.03.05.03,0,0,.01,0,.02,0l3.07-.79s.04-.03.05-.05Z" fill="#231815" stroke-width="0"/>
        <path d="m49.92,41.04c-.29-.09-.65-.2-1-.2-.1,0-.2.01-.3.03-.03,0-.05.03-.05.05v.08s-.66-.05-.66-.05h0s-.06.02-.06.06v.08s-1.65-.25-1.65-.25c-.02,0-.03,0-.05.01s-.02.03-.02.04v.08c-.73-.05-1.45-.1-2.17-.15v-.08s0-.03,0-.05c-.01-.01-.03-.02-.04-.02l-1.23-.09s0-.05,0-.08c0-.03-.02-.06-.06-.06l-.65-.05v-.08s0-.03,0-.05c-.01-.01-.03-.02-.04-.02l-.51-.04s0-.05,0-.08c0-.03-.02-.06-.06-.06-.17-.01-.34-.02-.51-.04,0-.03,0-.05,0-.08,0-.03-.02-.06-.06-.07l-.37-.03v-.08s0-.03,0-.04c-.01-.01-.03-.02-.04-.02l-.8-.06s0-.05,0-.08c0-.03-.02-.06-.06-.07-.07,0-.15-.01-.23-.02,0-.03,0-.05,0-.08,0-.03-.02-.06-.05-.06-.36-.07-.72-.13-1.08-.2l-.15-.03s0-.06,0-.09c0-.02,0-.03-.01-.04-.01-.01-.03-.02-.04-.02l-.37-.03s0-.05,0-.08c0-.02,0-.03-.01-.05-.01-.01-.03-.02-.04-.02-.07,0-.15-.01-.22-.02,0-.03,0-.05,0-.08,0-.03-.02-.06-.04-.06l-1.41-.39s-.06.01-.07.03c-.01.02-.06.1-.16.1,0,0-.01,0-.02,0,0-.03,0-.06,0-.09,0-.03-.02-.06-.06-.06-.17-.01-.34-.02-.51-.04,0-.03,0-.05,0-.08,0-.02,0-.03-.01-.05-.01-.01-.03-.02-.04-.02l-.37-.03v-.08s0-.03,0-.04c-.01-.01-.03-.02-.04-.02l-.85-.06c-.94-.35-1.52-.35-2.58-.34h-.15s-.06.03-.06.06c0,.14-.02.29-.03.43,0,.03.02.06.05.06l2.55.61.8.06v.08s0,.03,0,.04c.01.01.03.02.04.02.17.01.34.02.51.04,0,.03,0,.05,0,.08,0,.03.02.06.06.06l.65.05v.08s0,.03,0,.05c.01.01.03.02.04.02l.64.04h.02s0,.08,0,.08c0,.02,0,.03.01.05.01.01.03.02.04.02l.37.03s0,.05,0,.08c0,.02,0,.03.01.04.01.01.03.02.04.02l.51.04v.08s0,.03,0,.05c.01.01.03.02.04.02l.37.03v.08s0,.03,0,.04c.01.01.03.02.04.02.17.01.34.02.51.04v.08s0,.03,0,.04c.01.01.03.02.04.02l.65.05s0,.06,0,.08c0,.03.02.06.06.06.07,0,.15.01.22.02v.08s0,.03,0,.04c.01.01.03.02.04.02l.64.04h.02s0,.06,0,.08c0,.02,0,.03.01.05.01.01.03.02.04.02l.37.02v.08s0,.03,0,.05c.01.01.03.02.04.02h.04c.16.01.31.02.47.04,0,.03,0,.06,0,.08,0,.03.02.06.05.06l.2.04c.34.06.68.12,1.03.19,0,.03,0,.06,0,.09,0,.03.02.06.05.06l5.41.67h.01c.05,0,.17-.03.32-.05.32-.06.8-.15,1.08-.15.08,0,.12,0,.15.02.01.02.03.04.06.04.02,0,.03,0,.05-.02.09,0,.19.01.28.02,0,0,0,0,.02,0,.01.02.03.03.06.03.01,0,.03,0,.05-.02l.38.03h0s.06-.02.06-.06l.05-.72s-.02-.06-.05-.06c-.08-.02-.18-.05-.29-.08Z" fill="#231815" stroke-width="0"/>
        <path d="m21.76,41.08c-.19-.07-.41-.15-.66-.15-.07,0-.15,0-.22.02-.03,0-.05.03-.05.05s0,.05,0,.08l-.59-.04s0-.05,0-.08c0-.02,0-.03-.01-.05-.01-.01-.03-.02-.04-.02l-.51-.04v-.08s0-.03,0-.05c-.01-.01-.03-.02-.04-.02l-.25-.02-.11-.26s0-.01-.01-.02c-.33-.35-.46-.45-1.15-.53-.02,0-.04,0-.06.02h0q-.1.15-.23.22l-.04.02s-.04.04-.03.07c.04.15.08.29.11.44,0,.02.02.03.03.04.37.2.85.61,1.06.92.01.02.03.02.05.03.89.05,1.56.23,2.27.42l.13.03s.01,0,.02,0c.02,0,.04,0,.05-.02.15-.2.29-.26.53-.35l.05-.02s.04-.03.04-.05l.03-.43s-.02-.06-.05-.06c-.09-.02-.18-.05-.27-.09Z" fill="#231815" stroke-width="0"/>
        <path d="m40.33,42.45h0s-.03,0-.04.02c-.01.01-.02.03-.02.04,0,.03,0,.05,0,.08h0c-.31-.02-.63-.04-.94-.07,0,0-.01,0-.02,0-.05.01-.07.06-.09.1-.04.09-.08.16-.2.16-.03,0-.05,0-.08,0v-.08s0-.03,0-.04c-.01-.01-.03-.02-.04-.02l-1.43-.1s-.01,0-.02,0c-.12.02-.26.03-.42.03-.28,0-.59-.03-.92-.07-.33-.03-.68-.07-1-.07-.21,0-.38.01-.54.05-.03,0-.05.03-.05.05v.08s-1.03-.07-1.03-.07v-.08s0-.03,0-.04c-.01-.01-.03-.02-.04-.02l-1.37-.1v-.08s0-.03,0-.05c-.01-.01-.03-.02-.04-.02-.26-.02-.53-.04-.8-.05,0-.03,0-.06,0-.08,0-.03-.02-.06-.06-.06l-1.37-.1v-.08s0-.03,0-.05c-.01-.01-.03-.02-.04-.02l-.51-.04s0-.05,0-.08c0-.03-.02-.06-.06-.06l-.65-.05s0-.05,0-.08c0-.02,0-.03-.01-.05-.01-.01-.03-.02-.04-.02l-.22-.02s0-.05,0-.08c0-.02,0-.03-.01-.05-.01-.01-.03-.02-.04-.02-.27-.02-.53-.04-.8-.06,0-.03,0-.05,0-.08,0-.02,0-.03-.01-.04-.01-.01-.03-.02-.04-.02-.14-.01-.29-.02-.43-.03-.02,0-.04,0-.05.03-.05.08-.09.13-.13.18-.09.12-.15.2-.22.54,0,.02,0,.04.02.06.03.03.06.05.07.06,0,.02.02.04.05.08,0,.01.02.02.04.03.7.12,1.29.37,1.86.62.22.1.43.19.65.27,0,0,.01,0,.02,0,.27.02.53.04.8.05v.08s0,.03,0,.04c.01.01.03.02.04.02l.94.07v.08s0,.03,0,.04c.01.01.03.02.04.02l2.86.2c.83.06,1.69.09,2.56.09,1.62,0,3.24-.1,4.66-.3.02,0,.04-.02.05-.04l.17-.42s0-.06-.03-.08c-.27-.12-.56-.18-1.01-.22Z" fill="#231815" stroke-width="0"/>
      </g>
    </g>
  </g>
</svg>